<svg width="545" height="447" viewBox="0 0 545 447" fill="none" xmlns="http://www.w3.org/2000/svg">
<path d="M1.07288e-06 222C1.07288e-06 153.2 13.2 99 39.6 59.4C66.4 19.8 109.4 -3.86238e-05 168.6 -3.86238e-05C227.8 -3.86238e-05 270.6 19.8 297 59.4C323.8 99 337.2 153.2 337.2 222C337.2 291.6 323.8 346.2 297 385.8C270.6 425.4 227.8 445.2 168.6 445.2C109.4 445.2 66.4 425.4 39.6 385.8C13.2 346.2 1.07288e-06 291.6 1.07288e-06 222ZM236.4 222C236.4 181.6 232 150.6 223.2 129C214.4 107 196.2 96 168.6 96C141 96 122.8 107 114 129C105.2 150.6 100.8 181.6 100.8 222C100.8 249.2 102.4 271.8 105.6 289.8C108.8 307.4 115.2 321.8 124.8 333C134.8 343.8 149.4 349.2 168.6 349.2C187.8 349.2 202.2 343.8 211.8 333C221.8 321.8 228.4 307.4 231.6 289.8C234.8 271.8 236.4 249.2 236.4 222ZM380.606 104.4V8.99999H546.806V447H440.006V104.4H380.606Z" fill="#111111"/>
</svg>
