<svg width="690" height="447" viewBox="0 0 690 447" fill="none" xmlns="http://www.w3.org/2000/svg">
<path d="M1.07288e-06 223C1.07288e-06 154.2 13.2 100 39.6 60.4C66.4 20.8 109.4 0.999961 168.6 0.999961C227.8 0.999961 270.6 20.8 297 60.4C323.8 100 337.2 154.2 337.2 223C337.2 292.6 323.8 347.2 297 386.8C270.6 426.4 227.8 446.2 168.6 446.2C109.4 446.2 66.4 426.4 39.6 386.8C13.2 347.2 1.07288e-06 292.6 1.07288e-06 223ZM236.4 223C236.4 182.6 232 151.6 223.2 130C214.4 108 196.2 97 168.6 97C141 97 122.8 108 114 130C105.2 151.6 100.8 182.6 100.8 223C100.8 250.2 102.4 272.8 105.6 290.8C108.8 308.4 115.2 322.8 124.8 334C134.8 344.8 149.4 350.2 168.6 350.2C187.8 350.2 202.2 344.8 211.8 334C221.8 322.8 228.4 308.4 231.6 290.8C234.8 272.8 236.4 250.2 236.4 223ZM387.806 365.8C401.406 355 407.606 350 406.406 350.8C445.606 318.4 476.406 291.8 498.806 271C521.606 250.2 540.806 228.4 556.406 205.6C572.006 182.8 579.806 160.6 579.806 139C579.806 122.6 576.006 109.8 568.406 100.6C560.806 91.4 549.406 86.8 534.206 86.8C519.006 86.8 507.006 92.6 498.206 104.2C489.806 115.4 485.606 131.4 485.606 152.2H386.606C387.406 118.2 394.606 89.8 408.206 67C422.206 44.2 440.406 27.4 462.806 16.6C485.606 5.79997 510.806 0.399969 538.406 0.399969C586.006 0.399969 621.806 12.6 645.806 37C670.206 61.4 682.406 93.2 682.406 132.4C682.406 175.2 667.806 215 638.606 251.8C609.406 288.2 572.206 323.8 527.006 358.6H689.006V442H387.806V365.8Z" fill="#111111"/>
</svg>
