<svg width="78" height="77" viewBox="0 0 78 77" fill="none" xmlns="http://www.w3.org/2000/svg">
<path d="M1.52142 41.6619H37.6413C37.6413 41.6619 45.9934 41.5534 49.0305 36.8893C52.0676 32.0082 61.2874 12.5924 61.2874 12.5924C61.2874 12.5924 62.0467 10.5315 63.9991 10.5315L72.5681 10.0977L71.7003 12.9178H66.4938C64.5414 12.9178 63.7821 15.0872 63.7821 15.0872C63.7821 15.0872 53.1523 39.2756 50.1152 44.0482C46.9696 48.9293 38.6175 48.9293 38.6175 48.9293H1.52142V41.6619Z" fill="white"/>
<path d="M65.5169 8.03678H73.6521L74.6283 5.32507H63.456C63.456 5.32507 58.9004 5.54201 57.0564 10.2061L48.8128 26.2594C48.8128 26.2594 46.8604 31.032 37.0983 31.032H1.08685V38.1909H38.0745C46.6435 38.1909 49.4637 31.6828 49.4637 31.6828L59.3343 11.7247C59.5512 11.7247 60.6359 8.03678 65.5169 8.03678Z" fill="white"/>
<path d="M65.6254 2.72188H76.0384L77.0146 0.0101772H65.6254C65.6254 0.0101772 57.0564 -0.532164 53.3685 6.30133L46.9689 17.1481C44.5826 21.7038 36.2305 20.8361 36.2305 20.8361H1.08685V28.1034H37.2067C37.2067 28.1034 44.0402 28.1034 47.2943 23.3308L56.2971 7.38601C56.2971 7.38601 58.9004 2.72188 65.6254 2.72188Z" fill="white"/>
<path d="M5.64296 60.6439L0.653428 59.7762C1.19577 57.6068 2.17198 56.0883 3.58207 55.1121C4.99215 54.0274 7.16152 53.485 9.87322 53.485C12.368 53.485 14.2119 53.8105 15.5136 54.3528C16.7067 55.0036 17.6829 55.7629 18.1168 56.7391C18.6591 57.6068 18.8761 59.3423 18.8761 61.8371L18.7676 68.4537C18.7676 70.2976 18.8761 71.7077 19.093 72.5754C19.2015 73.3347 19.6354 74.4194 20.0692 75.3956H14.5374L13.995 73.6601L13.8865 72.9008C12.9103 73.8771 11.8256 74.6363 10.741 75.0702C9.65629 75.5041 8.46314 75.8295 7.26999 75.8295C4.99215 75.8295 3.25666 75.1787 2.06351 73.9855C0.653428 73.0093 0.00261921 71.4908 0.00261921 69.6468C-0.0308998 68.5262 0.257894 67.4195 0.834705 66.4581C1.41152 65.4968 2.25211 64.7212 3.25666 64.2234C4.34135 63.7895 5.8599 63.3556 7.70386 63.0302C10.4156 62.4879 12.1511 62.054 13.2357 61.6202V60.9693C13.2357 59.8847 13.0188 59.1254 12.4765 58.6915C11.9341 58.2576 10.9579 58.0407 9.43935 58.0407C8.46314 58.0407 7.59539 58.1492 7.16152 58.5831C6.40224 58.9085 5.96837 59.7762 5.64296 60.6439ZM13.2357 65.3081L9.76475 66.1758C8.2462 66.5012 7.26999 66.8266 6.72764 67.152C5.96837 67.5859 5.5345 68.3452 5.5345 69.1045C5.5345 69.8637 5.8599 70.5145 6.40224 71.1654C7.05305 71.7077 7.70386 72.0331 8.68007 72.0331C9.76475 72.0331 10.6325 71.7077 11.6087 70.9484C12.2595 70.5145 12.6934 69.8637 13.0188 69.1045L13.2357 66.2843V65.3081ZM34.8209 68.7791L40.3528 69.6468C39.702 71.7077 38.5088 73.3347 36.9903 74.4194C35.2608 75.5713 33.2088 76.1413 31.133 76.0464C27.4451 76.0464 24.6249 74.8533 22.8894 72.467C21.4793 70.5145 20.72 68.0198 20.72 65.0911C20.72 61.5117 21.6963 58.6915 23.4317 56.7391C25.3842 54.7867 27.662 53.702 30.4822 53.702C33.6277 53.702 36.1225 54.7867 38.0749 56.8476C39.9189 58.9085 40.7866 62.1625 40.6782 66.5012H26.5773C26.5773 68.2367 27.1197 69.5383 27.8789 70.5145C28.7467 71.3823 29.9398 71.8162 31.2414 71.8162C32.0007 71.8162 32.8685 71.5992 33.4108 71.1654C34.0616 70.5145 34.4955 69.7553 34.8209 68.7791ZM35.0378 63.0302C35.0378 61.4032 34.604 60.1016 33.7362 59.3423C32.9769 58.4746 32.0007 58.0407 30.8076 58.0407C29.6144 58.0407 28.6382 58.4746 27.7705 59.3423C27.0112 60.2101 26.5773 61.5117 26.5773 63.0302H35.0378ZM48.7048 75.5041H43.0645V54.0274H48.271V57.0645C49.1387 55.5459 50.0064 54.6782 50.6572 54.2443C51.4165 53.8105 52.2843 53.485 53.152 53.485C54.4536 53.485 55.6468 53.9189 56.8399 54.5697L55.2129 59.5593C54.2367 58.9085 53.369 58.5831 52.5012 58.5831C51.7419 58.5831 50.9827 58.9085 50.5488 59.3423C50.0064 59.7762 49.5726 60.5355 49.2472 61.7286C48.9218 62.8133 48.7048 65.1996 48.7048 68.8875V75.5041ZM55.9722 64.5488C55.9722 62.5964 56.4061 60.8609 57.2738 59.0169C58.25 57.2814 59.5516 55.9798 61.2871 55.0036C63.0226 54.0274 64.8666 53.5935 66.9275 53.5935C70.1815 53.5935 72.8932 54.6782 74.9541 56.8476C77.015 58.9085 77.9912 61.5117 77.9912 64.7657C78.0508 66.2447 77.807 67.7202 77.2748 69.1014C76.7427 70.4826 75.9336 71.7403 74.8971 72.797C73.8607 73.8537 72.619 74.6872 71.2484 75.246C69.8778 75.8048 68.4073 76.0772 66.9275 76.0464C64.9751 76.0464 63.0226 75.6126 61.2871 74.6363C59.4432 73.7686 58.0331 72.5754 57.2738 70.84C56.4061 69.1045 55.9722 66.9351 55.9722 64.5488ZM61.8295 64.7657C61.8295 66.9351 62.2633 68.4537 63.348 69.6468C64.3242 70.84 65.5174 71.3823 67.1444 71.3823C68.663 71.3823 69.8561 70.84 70.8323 69.6468C71.8085 68.5621 72.3509 66.9351 72.3509 64.7657C72.3509 62.7048 71.8085 61.0778 70.8323 59.9931C70.379 59.4552 69.8147 59.0216 69.1782 58.722C68.5416 58.4225 67.8479 58.2641 67.1444 58.2576C65.6259 58.2576 64.3242 58.9085 63.348 59.9931C62.2633 61.0778 61.8295 62.7048 61.8295 64.7657Z" fill="white"/>
</svg>
