<svg width="109" height="61" viewBox="0 0 109 61" fill="none" xmlns="http://www.w3.org/2000/svg">
<path d="M16.8255 0.956055H7.91788L0 25.6641H4.77193L6.96349 18.8773H17.9213L20.2189 25.6641H24.9908L16.8255 0.956055ZM8.236 14.9537L12.3717 2.19322L16.6134 14.9537H8.236ZM31.5213 25.6994V0.956055H27.1382V25.6994H31.5213ZM41.1836 7.46002V0.956055H36.8005V7.46002H34.1494V10.8887H34.5736C34.5736 10.8887 36.8005 10.8887 36.8005 13.3277V21.2103C36.8005 23.72 38.8153 25.6994 41.2896 25.6994H44.2942V21.8112H42.5621C41.8198 21.8112 41.1836 21.1749 41.1836 20.4326V13.6459C41.1836 11.0301 35.634 10.8887 34.7149 10.8887H44.2942V7.46002H41.1836ZM13.927 44.9542C13.927 44.9542 9.19039 43.8584 9.049 43.823C7.45836 43.3988 6.11515 42.6212 6.11515 40.9952C6.11515 39.2278 8.27135 37.7786 10.9931 37.7786C14.3158 37.7786 16.1892 39.8287 16.1892 41.8436H20.8198C20.8198 37.5311 17.4617 33.8903 10.9931 33.8903C5.51423 33.8903 1.4846 36.8242 1.4846 41.0306C1.4846 45.3783 4.24172 47.4638 8.27135 48.3829C8.27135 48.3829 13.0433 49.4786 13.1493 49.514C14.9874 49.9735 16.5074 50.8926 16.5074 52.6953C16.5074 54.9222 13.7502 56.3361 10.8517 56.0887C6.92814 55.7705 5.47889 53.1902 5.47889 51.3521H0.883692C0.883692 55.3817 4.24172 59.8355 10.9224 60.0123C15.9418 60.1183 21.1379 57.3612 21.1379 52.6953C21.1379 48.3829 18.1687 45.9792 13.927 44.9542ZM32.4014 55.8766C29.6089 55.8766 28.1243 53.2255 28.1243 50.1856C28.1243 47.1104 29.9624 44.4946 32.366 44.4946C34.2748 44.4946 35.7948 45.9085 36.325 47.8527H41.0616C40.2839 43.2928 36.6431 40.6064 32.3307 40.6064C27.4881 40.6064 23.2817 44.8481 23.5291 50.7512C23.7412 56.2654 27.7001 59.7295 32.4367 59.7295C36.8552 59.7295 40.1425 56.7956 40.9909 52.8013H36.1129C35.7241 54.392 34.3101 55.8766 32.4014 55.8766ZM48.4357 48.595V48.701V48.595ZM53.4551 40.6771C50.7686 40.8892 48.471 43.6816 48.4357 48.595C48.471 46.156 49.5668 44.3886 52.0765 44.3886C54.8336 44.3886 55.7173 46.4388 55.7173 48.701V59.3406H60.1358V47.2164C60.1358 42.9747 56.6363 40.4296 53.4551 40.6771ZM44.0526 34.5973V59.3406H48.4357V34.5973H44.0526ZM72.0327 40.6064C67.3314 40.6064 63.019 44.1058 63.019 50.1856C63.019 56.2654 67.2607 59.6941 72.0327 59.7295C76.84 59.6941 81.0817 56.2301 81.0817 50.1856C81.0817 44.1058 76.7339 40.6064 72.0327 40.6064ZM72.0327 55.8412C69.6997 55.8412 67.4375 54.0032 67.4375 50.1856C67.4375 46.5801 69.6644 44.53 72.0327 44.4946C74.4363 44.53 76.6632 46.6155 76.6632 50.1856C76.6632 54.0032 74.401 55.8412 72.0327 55.8412ZM92.399 40.6064C87.6978 40.6064 83.3854 44.1058 83.3854 50.1856C83.3854 56.2654 87.6271 59.6941 92.399 59.7295C97.2063 59.6941 101.448 56.2301 101.448 50.1856C101.448 44.1058 97.1003 40.6064 92.399 40.6064ZM92.399 55.8412C90.0661 55.8412 87.8038 54.0032 87.8038 50.1856C87.8038 46.5801 90.0307 44.53 92.399 44.4946C94.8027 44.53 97.0296 46.6155 97.0296 50.1856C97.0296 54.0032 94.7673 55.8412 92.399 55.8412ZM108.948 59.3406V34.5973H104.565V59.3406H108.948ZM109 20.301H49.0309V25.6641H109V20.301Z" fill="white"/>
</svg>
