<svg width="144" height="38" viewBox="0 0 144 38" fill="none" xmlns="http://www.w3.org/2000/svg">
<g clip-path="url(#clip0_38_765)">
<path fill-rule="evenodd" clip-rule="evenodd" d="M40.2369 32.4783L43.7691 0.307373H49.6689L48.1747 13.6959C49.0674 12.4924 50.0409 11.5504 51.0954 10.8699C52.1498 10.1893 53.2658 9.8491 54.4431 9.8491C55.2714 9.8491 56.0282 10.0103 56.714 10.3326C57.3995 10.655 57.9915 11.16 58.4897 11.8477C58.9877 12.5354 59.3759 13.4129 59.654 14.4803C59.9323 15.5476 60.0714 16.8191 60.0714 18.2948C60.0714 20.2433 59.8029 22.095 59.2658 23.8501C58.7289 25.6051 58.0076 27.1488 57.1019 28.4813C56.1964 29.8136 55.1516 30.8703 53.9678 31.6511C52.784 32.4319 51.5451 32.8224 50.2512 32.8224C49.2549 32.8224 48.3784 32.6109 47.6216 32.1882C46.8646 31.7656 46.221 31.2105 45.6904 30.5229L45.6322 30.7378C45.3192 31.7774 44.4424 32.4783 43.4548 32.4783H40.2369ZM52.0366 14.8993C51.6098 14.8993 51.1666 15.0784 50.7072 15.4366C50.2481 15.7948 49.8048 16.2855 49.3778 16.9087C48.951 17.5319 48.5532 18.2626 48.1843 19.1007C47.8155 19.9388 47.5084 20.8307 47.2624 21.7763L46.6802 26.9769C47.0555 27.3207 47.4761 27.5643 47.9417 27.7076C48.4076 27.8508 48.854 27.9225 49.2808 27.9225C49.9796 27.9225 50.6232 27.6645 51.212 27.1488C51.8005 26.633 52.3084 25.9561 52.7355 25.118C53.1622 24.2799 53.4954 23.3236 53.7349 22.249C53.9741 21.1745 54.0938 20.0785 54.0938 18.961C54.0938 17.5426 53.9062 16.5111 53.5311 15.8664C53.1557 15.2217 52.6577 14.8993 52.0366 14.8993ZM78.159 32.4783H75.8994C74.2812 32.4783 72.9693 31.0224 72.9693 29.2263C72.9693 29.0776 72.9784 28.9292 72.9967 28.7821C72.1687 30.0429 71.2499 31.0316 70.2409 31.7479C69.2316 32.4642 68.1189 32.8224 66.9028 32.8224C66.1781 32.8224 65.4795 32.6612 64.8067 32.3388C64.1339 32.0163 63.5389 31.5293 63.0213 30.8774C62.5037 30.2255 62.0897 29.3946 61.7793 28.3845C61.4686 27.3744 61.3134 26.1818 61.3134 24.8064C61.3134 22.7863 61.6465 20.8701 62.3128 19.0577C62.9793 17.2453 63.9109 15.6587 65.1075 14.2976C66.3043 12.9365 67.7242 11.8549 69.3675 11.0526C71.0107 10.2502 72.8154 9.8491 74.7821 9.8491C75.7395 9.8491 76.7099 9.92073 77.6931 10.064C78.6766 10.2073 79.6468 10.4652 80.6044 10.8377L78.159 32.4783ZM69.3093 27.5573C69.7491 27.5573 70.1762 27.3744 70.5902 27.0092C71.0042 26.6437 71.3955 26.146 71.7643 25.5156C72.1329 24.8852 72.4726 24.1474 72.783 23.3021C73.0937 22.4568 73.359 21.5542 73.5789 20.5943L74.2775 14.4265H73.9282C72.9448 14.4265 72.0489 14.6701 71.2402 15.1572C70.4315 15.6443 69.7363 16.3069 69.1541 17.1451C68.5718 17.9832 68.1221 18.9574 67.8051 20.0678C67.4882 21.1781 67.3298 22.3636 67.3298 23.6244C67.3298 24.3408 67.3815 24.9497 67.485 25.4511C67.5883 25.9525 67.7276 26.3573 67.9022 26.6654C68.0769 26.9735 68.2838 27.1991 68.5233 27.3423C68.7625 27.4855 69.0247 27.5573 69.3093 27.5573ZM81.9628 32.4783L84.4082 10.1929H85.7224C87.8141 10.1929 89.5097 12.075 89.5097 14.3965C89.5097 14.5285 89.504 14.6605 89.4928 14.7919C90.2691 13.2732 91.1102 12.1056 92.0159 11.2889C92.9216 10.4723 93.8595 10.064 94.8299 10.064C95.3733 10.064 95.9102 10.2001 96.4408 10.4723L95.354 16.6401C94.694 16.3249 94.0666 16.1673 93.4713 16.1673C92.475 16.1673 91.5922 16.6651 90.8224 17.6608C90.0526 18.6566 89.4283 20.2576 88.9494 22.4639L87.8626 32.4783H81.9628ZM98.4591 27.6645V27.2993C98.4591 27.1561 98.4688 26.9518 98.4881 26.6868C98.5076 26.4217 98.54 26.0708 98.5851 25.6338C98.6305 25.1968 98.6921 24.6202 98.7695 23.9038L99.7982 14.7919H98.1873C97.9415 14.7919 97.7347 14.7023 97.5664 14.5233C97.3982 14.3442 97.3142 14.0755 97.3142 13.7174C97.3142 13.703 97.3269 13.5777 97.3528 13.3413C97.3789 13.1049 97.4047 12.8542 97.4305 12.5891C97.4563 12.3241 97.4822 12.0769 97.5082 11.8477C97.5341 11.6185 97.5468 11.4895 97.5468 11.4609L97.6898 10.2359L100.652 10.1929L101.182 6.27114C101.379 4.80735 102.512 3.72435 103.846 3.72435H106.921L106.183 10.2359H110.686L110.646 10.5917C110.381 12.99 108.545 14.7919 106.368 14.7919H105.679L104.708 23.5385C104.644 24.1259 104.595 24.5879 104.563 24.9246C104.53 25.2613 104.505 25.5192 104.485 25.6983C104.472 25.82 104.459 25.9418 104.446 26.0636C104.44 26.1281 104.437 26.1675 104.437 26.1818C104.437 26.5973 104.524 26.9448 104.699 27.2242C104.873 27.5035 105.148 27.6431 105.523 27.6431C105.73 27.6431 105.902 27.6181 106.038 27.568C106.128 27.5346 106.449 27.3948 106.998 27.1488L108.978 30.8881C108.176 31.5329 107.315 32.0163 106.397 32.3388C105.478 32.6612 104.553 32.8224 103.621 32.8224C102.845 32.8224 102.147 32.704 101.525 32.4676C100.905 32.2313 100.371 31.8875 99.9244 31.4362C99.4781 30.9849 99.1288 30.4441 98.8762 29.8136C98.624 29.1833 98.4849 28.4669 98.4591 27.6645ZM128.463 15.673C128.463 16.6902 128.282 17.6214 127.919 18.4667C127.557 19.312 126.927 20.0606 126.027 20.7125C125.128 21.3644 123.918 21.9195 122.398 22.378C120.878 22.8364 118.966 23.1946 116.663 23.4525C116.689 24.9712 116.99 26.0815 117.566 26.7836C118.141 27.4856 118.992 27.8364 120.118 27.8364C120.648 27.8364 121.108 27.7863 121.496 27.6862C121.884 27.5857 122.223 27.4569 122.514 27.2993C124.259 26.3549 126.345 26.6756 127.793 28.1111L128.036 28.3524C127.324 29.1259 126.629 29.7958 125.95 30.3616C125.27 30.9275 124.572 31.3931 123.854 31.7586C123.136 32.1238 122.372 32.3925 121.564 32.5644C120.755 32.7363 119.872 32.8224 118.914 32.8224C117.724 32.8224 116.631 32.5968 115.634 32.1455C114.638 31.6942 113.781 31.0566 113.063 30.2328C112.345 29.4089 111.789 28.4169 111.394 27.2562C110.999 26.0958 110.802 24.8064 110.802 23.388C110.802 22.1989 110.922 21.0384 111.161 19.9066C111.401 18.7747 111.743 17.711 112.19 16.7153C112.636 15.7195 113.183 14.8026 113.83 13.9645C114.477 13.1264 115.204 12.4065 116.013 11.8047C116.822 11.203 117.708 10.7338 118.672 10.3971C119.636 10.0604 120.661 9.89209 121.748 9.89209C122.822 9.89209 123.776 10.064 124.611 10.4079C125.445 10.7517 126.147 11.1994 126.716 11.751C127.285 12.3026 127.719 12.9222 128.016 13.6099C128.314 14.2976 128.463 14.9853 128.463 15.673ZM121.399 14.3836C120.402 14.3836 119.529 14.8241 118.779 15.7052C118.028 16.5863 117.465 17.7934 117.09 19.3264C118.345 19.1115 119.361 18.8858 120.137 18.6494C120.913 18.413 121.515 18.1551 121.942 17.8757C122.369 17.5964 122.657 17.2955 122.806 16.9732C122.955 16.6508 123.029 16.3034 123.029 15.9309C123.029 15.5584 122.899 15.2074 122.641 14.8779C122.382 14.5483 121.968 14.3836 121.399 14.3836ZM129.472 32.4783L131.917 10.1929H132.858C135.147 10.1929 137.002 12.252 137.002 14.7919C137.778 13.2732 138.619 12.1056 139.525 11.2889C140.431 10.4723 141.369 10.064 142.339 10.064C142.883 10.064 143.419 10.2001 143.95 10.4723L142.863 16.6401C142.203 16.3249 141.576 16.1673 140.981 16.1673C139.984 16.1673 139.101 16.6651 138.331 17.6608C137.562 18.6566 136.937 20.2576 136.459 22.4639L135.372 32.4783H129.472Z" fill="white"/>
<path d="M24.963 16.209C29.6689 12.2517 39.3495 -1.89192 24.2235 0.599698C17.6352 1.62565 9.46805 7.62158 7.51847 15.0965C6.50134 13.0976 5.379 11.1646 4.15709 9.30708C2.34196 6.74218 -1.25567 9.24708 0.761139 11.8853C6.47549 19.4334 10.4419 28.5204 10.4419 37.6808C10.9125 33.1373 11.6866 27.0415 9.93866 21.6186C10.5783 22.0986 10.6246 22.1346 11.0698 22.7198C14.1623 27.8497 18.9125 32.1113 24.2235 34.1633C29.064 36.142 35.5176 34.9694 32.8959 27.0548C31.4841 22.7311 28.1898 18.9204 24.963 16.209Z" fill="white"/>
</g>
<defs>
<clipPath id="clip0_38_765">
<rect width="144" height="37.5652" fill="white" transform="translate(0 0.201416)"/>
</clipPath>
</defs>
</svg>
