<svg width="121" height="47" viewBox="0 0 121 47" fill="none" xmlns="http://www.w3.org/2000/svg">
<path d="M33.6242 28.7308C33.3066 28.8121 33.1492 29.0234 33.0914 29.341C32.8198 30.854 32.4996 32.3592 32.4353 33.8998C32.3854 34.6175 32.4496 35.3386 32.6256 36.0362C32.9576 37.2172 33.7082 38.0308 34.905 38.267C37.0925 38.7001 39.1042 38.3156 40.5897 36.5151C41.7064 35.1596 42.1644 33.5993 41.4571 31.8645C41.3823 31.6807 41.3416 31.4918 41.5883 31.4419C42.3875 31.2805 43.1906 31.0482 44.0016 31.3855C44.932 31.7792 45.39 32.5114 45.4005 33.4851C45.4175 35.2855 44.6131 36.7225 43.2392 37.8235C41.5765 39.158 39.6514 39.9362 37.5544 40.305C36.0637 40.5674 34.5638 40.528 33.0717 40.3732C30.9498 40.1527 28.9525 39.553 27.2479 38.1975C25.4107 36.7422 24.5459 34.7856 24.3832 32.5049C24.3255 31.7083 24.374 30.9052 24.2835 30.089C24.0105 30.7451 23.7455 31.4012 23.4633 32.0574C22.4936 34.2935 21.2049 36.2986 19.2549 37.8261C17.9835 38.8274 16.4941 39.5153 14.9073 39.8339C14.8082 39.8475 14.7082 39.8545 14.6081 39.8549C14.4034 39.7551 14.1987 39.8614 13.9927 39.8614C9.84593 39.8509 5.69961 39.8509 1.55372 39.8614C1.05506 39.8614 0.557713 39.8719 0 39.8339C0.0931709 39.6961 0.181092 39.5806 0.141724 39.4402C1.33457 37.4587 1.74794 35.233 2.1823 33.0101C2.83843 29.6166 3.52737 26.227 4.19794 22.8348C4.42234 21.701 4.6323 20.5645 4.85407 19.4294C4.87746 19.3694 4.8959 19.3075 4.90919 19.2444C5.30024 17.3311 5.69042 15.4178 6.07973 13.5046C6.27997 12.8705 6.28363 12.1907 6.09023 11.5545C6.02724 11.237 5.959 10.9194 5.89995 10.6018C5.8409 10.2423 6.01543 10.1714 6.34612 10.174C8.73182 10.1858 11.1188 10.174 13.5045 10.174C14.0675 10.174 14.0675 10.174 14.0859 10.7304C14.084 10.8305 14.0761 10.9304 14.0622 11.0296C13.6344 13.2167 13.2053 15.4038 12.7749 17.5909C12.6437 18.2353 12.5295 18.8809 12.3944 19.5935C12.8405 19.3231 13.2145 19.0922 13.5925 18.8678C15.263 17.8731 17.0043 17.15 19.0147 17.2865C21.4201 17.4518 23.1956 18.5489 24.2271 20.7588C24.9711 22.3545 25.126 24.0499 25.0144 25.7821C24.996 26.0839 24.9803 26.3858 24.9632 26.6863C25.1737 26.2692 25.3629 25.8417 25.5301 25.4055C26.08 24.1103 26.8503 22.9476 27.6967 21.8309C27.7428 21.7924 27.7866 21.7512 27.8279 21.7075C29.2108 20.0883 30.99 18.8553 32.9917 18.129C35.2161 17.2892 37.6044 16.9749 39.9703 17.2104C41.1999 17.3416 42.3495 17.7287 43.4623 18.2484L43.4688 18.2563C44.3428 18.7602 45.1866 19.3061 45.8781 20.0554C46.9726 21.2443 47.4371 22.6799 47.5211 24.2546C47.5817 25.6037 47.4604 26.9548 47.1602 28.2715C47.1209 28.4513 47.1038 28.6573 46.8597 28.698C46.8246 28.6713 46.7842 28.6522 46.7413 28.6421C46.6984 28.6319 46.6538 28.6308 46.6104 28.6389H33.7909C33.7306 28.6422 33.6706 28.6488 33.6111 28.6586L33.6242 28.7308ZM33.8591 26.7427L33.8355 26.8044C33.8676 26.8165 33.9011 26.8249 33.9352 26.8293H38.8483C38.9244 26.8293 39.0005 26.8293 39.0452 26.7479C39.4585 26.6167 39.3785 26.2322 39.4467 25.9317C39.8485 24.2051 40.0723 22.4418 40.1147 20.6695C40.1317 19.6565 39.4585 18.9964 38.4533 18.9636C37.0361 18.9124 36.0558 19.5803 35.4194 20.8008C34.5192 22.5251 34.0546 24.3872 33.7003 26.2847C33.6662 26.4671 33.6754 26.6338 33.8591 26.7427ZM9.63335 37.8655C9.87349 37.8655 10.1123 37.8655 10.3525 37.8655C10.4414 37.8603 10.5295 37.8449 10.6149 37.8195C12.8773 37.2159 14.4585 35.8616 15.1383 33.5888C15.906 31.0299 16.4388 28.4145 16.9387 25.7913C17.1766 24.524 17.0807 23.2166 16.6605 21.9975C16.5817 21.715 16.4187 21.4632 16.1931 21.2757C15.9676 21.0881 15.6903 20.9737 15.3981 20.9477C14.5294 20.8296 13.784 21.1104 13.1489 21.7023C11.9967 22.7744 11.3787 24.1365 11.0703 25.6469C10.5834 28.0287 10.1241 30.4144 9.65828 32.8001C9.35121 34.3748 9.05726 35.9417 8.73969 37.5098C8.68589 37.7828 8.73969 37.8891 9.02839 37.872C9.22917 37.855 9.43126 37.8655 9.63335 37.8655Z" fill="white"/>
<path d="M73.709 40.4507C72.3968 40.5399 71.0963 40.6318 69.7827 40.5426C67.4102 40.3812 65.1176 39.9258 63.0101 38.771C62.1991 38.3275 61.4643 37.7724 61.0181 36.926C60.3384 35.636 60.6809 34.0626 61.6611 32.9091C63.472 30.7819 67.4351 30.4079 69.893 32.2937C70.186 32.5117 70.4506 32.7656 70.6803 33.0495C70.9362 33.371 70.9218 33.5548 70.6055 33.8172C70.2893 34.0797 69.9494 34.3224 69.6869 34.6557C68.5335 36.1215 69.1515 38.1267 70.9415 38.6398C72.5044 39.0873 73.8075 38.7041 74.9203 37.4732C76.9713 35.2016 78.2167 32.5312 78.9883 29.6101C79.1615 28.9539 79.2953 28.286 79.4279 27.6207C79.4712 27.4055 79.5499 27.1115 79.3557 26.9869C79.1969 26.8845 78.9962 27.101 78.8308 27.2152C77.2312 28.3437 75.5016 29.1993 73.5817 29.614C71.2512 30.1166 68.935 30.1389 66.6635 29.2755C64.0298 28.2794 62.1112 25.5735 62.039 22.764C62.026 21.3255 62.2595 19.8955 62.7293 18.5359C62.7634 18.4296 62.7857 18.318 62.8133 18.2091C62.8618 18.1094 62.917 18.011 62.9576 17.9073C63.4455 16.6644 64.1443 15.515 65.0231 14.5098C66.7803 12.5073 69.0203 11.2528 71.4821 10.3421C72.9774 9.8087 74.5394 9.48542 76.1236 9.3815C78.0854 9.22665 80.021 9.33032 81.9291 9.84998C82.8556 10.1263 83.752 10.4952 84.6048 10.951C84.6444 10.9962 84.6884 11.0376 84.736 11.0743C85.7509 11.7095 86.6593 12.5009 87.4275 13.4193C88.1531 14.2671 88.6794 15.2368 89.1426 16.246C89.245 16.578 89.3421 16.9126 89.4536 17.2433C89.6951 17.9572 89.7357 18.7104 89.8945 19.4413C89.9024 19.7125 89.9111 19.9837 89.9208 20.2549V21.3874C89.9208 21.6394 89.9063 21.8913 89.8985 22.1433C89.8368 22.6288 89.7909 23.117 89.7082 23.5986C89.5848 24.3282 89.4365 25.0539 89.2988 25.7809C89.2901 25.7874 89.2842 25.797 89.2822 25.8077C89.2803 25.8184 89.2824 25.8294 89.2883 25.8386C89.2183 25.959 89.1762 26.0935 89.1649 26.2323L89.1413 26.3767C88.8412 27.2358 88.5403 28.0957 88.2384 28.9566C88.0247 29.3408 87.8388 29.7399 87.682 30.1507L87.6912 30.1415L87.6387 30.2387C87.6343 30.2408 87.6303 30.2437 87.627 30.2474C87.6238 30.251 87.6213 30.2553 87.6197 30.26C87.6181 30.2646 87.6174 30.2696 87.6178 30.2745C87.6181 30.2794 87.6194 30.2841 87.6217 30.2885C87.3945 30.6334 87.197 30.9969 87.0312 31.3751C86.8493 31.6051 86.696 31.8562 86.5745 32.1231L85.5076 33.6322C85.276 33.8604 85.0697 34.113 84.8922 34.3854L84.1888 35.1452C84.1839 35.1447 84.1789 35.1451 84.1741 35.1466C84.1694 35.148 84.165 35.1504 84.1612 35.1536C84.1574 35.1568 84.1542 35.1607 84.152 35.1651C84.1498 35.1696 84.1484 35.1744 84.1481 35.1793C83.9957 35.2963 83.8628 35.4367 83.7544 35.5953L82.1705 36.968C81.24 37.6221 80.2764 38.2279 79.2835 38.7828L77.9214 39.3917C77.4306 39.5479 76.9411 39.7067 76.4504 39.8602C75.5672 40.1305 74.6316 40.2539 73.709 40.4507ZM81.7348 16.8916C81.7399 15.8928 81.6325 14.8967 81.4147 13.9219C81.1614 12.7842 80.5984 11.8486 79.4463 11.4286C78.5395 11.1045 77.6091 11.1662 76.6984 11.4549C75.3454 11.8761 74.4505 12.838 73.6998 13.9757C72.6356 15.5872 72.0398 17.3719 71.6698 19.255C71.322 21.0265 71.2761 22.7784 71.7538 24.529C72.0661 25.6825 72.8272 26.6168 74.1158 26.7598C75.7352 26.9344 77.1511 26.4436 78.2875 25.3163C80.6273 23.0068 81.6981 20.1526 81.7348 16.8863V16.8916Z" fill="white"/>
<path d="M49.7111 22.4411L49.7439 22.2967C49.8752 21.6196 50.0208 20.9438 50.1376 20.2627C50.2058 19.8795 50.0707 19.7378 49.6849 19.7811C49.3974 19.8132 49.1076 19.8211 48.8188 19.8047C48.5813 19.789 48.5458 19.6853 48.6377 19.4832C48.7081 19.3362 48.8108 19.207 48.9382 19.1053C49.4933 18.6263 50.131 18.2641 50.715 17.8258C52.0089 16.8574 52.9931 15.595 54.014 14.3628C55.2751 12.8458 56.6255 11.4272 58.3642 10.4417C59.355 9.88006 60.3838 9.4129 61.5386 9.31054C61.7262 9.29086 61.9153 9.29086 62.1029 9.31054C62.2669 9.33022 62.532 9.30266 62.5477 9.49294C62.5625 9.60672 62.5447 9.72236 62.4964 9.82643C62.4481 9.93049 62.3712 10.0187 62.2748 10.0808C62.091 10.1893 61.9117 10.3057 61.7367 10.4299C60.2421 11.4797 59.4285 12.9875 58.8904 14.6764C58.6366 15.4959 58.426 16.3281 58.2592 17.1697C58.17 17.6027 58.1739 17.6041 58.6319 17.6041C59.4193 17.6041 60.1948 17.6041 60.9756 17.6041C61.3588 17.6041 61.4244 17.6907 61.3483 18.0542C61.2381 18.5791 61.1344 19.1145 61.0242 19.6433C61.0032 19.7391 60.9914 19.848 60.8654 19.8769C59.9612 19.8769 59.0571 19.8769 58.1529 19.8769C58.0427 19.8769 57.8905 19.8021 57.8314 19.9806C57.5834 20.1892 57.5887 20.4976 57.5335 20.7679C57.0296 23.3505 56.531 25.9313 56.0376 28.5103C55.7331 30.0929 55.4589 31.6807 55.0967 33.2515C55.0179 33.594 54.9077 33.93 54.8342 34.2738C54.6466 35.1438 55.1045 35.7317 55.9929 35.7842C56.573 35.8183 57.1136 35.6412 57.6543 35.4745C57.9049 35.3984 58.0256 35.3984 57.9495 35.7291C57.3026 38.5308 54.7725 40.5451 51.9341 40.4375C50.1954 40.3706 48.7164 39.7472 47.7978 38.1581C47.1837 37.0965 47.1745 35.9705 47.4042 34.7921C48.1915 30.7385 48.9356 26.6797 49.6954 22.6222C49.7043 22.5622 49.7096 22.5017 49.7111 22.4411Z" fill="white"/>
<path d="M86.2696 46.2141L86.0505 46.1997C85.8296 46.1171 85.5971 46.0697 85.3615 46.0593L85.3301 46.0422H85.2959C85.1647 45.911 84.8747 46.0291 84.8406 45.747L84.9232 45.6682L85.0269 45.5895C85.0316 45.5911 85.0365 45.5916 85.0414 45.591C85.0463 45.5905 85.0511 45.5888 85.0552 45.5861C85.0594 45.5835 85.0629 45.5799 85.0655 45.5758C85.0681 45.5716 85.0697 45.5668 85.0702 45.5619C85.1724 45.4703 85.2748 45.3789 85.3773 45.2877C85.5695 45.1803 85.7291 45.0229 85.8392 44.8323C86.0053 44.7176 86.1379 44.5609 86.2237 44.3783H86.2171C86.2379 44.375 86.2567 44.364 86.2696 44.3474C86.2825 44.3308 86.2886 44.31 86.2867 44.289C86.62 43.9129 86.8764 43.4751 87.0412 43.0004C87.0856 42.9404 87.1246 42.8768 87.158 42.8101C87.7459 41.3666 87.9454 39.826 88.2393 38.309L88.2564 38.1686C88.4237 37.5698 88.5483 36.9598 88.6291 36.3433C88.7052 36.2842 88.6881 36.2015 88.6829 36.1215L88.7065 35.8984C88.8934 35.1993 89.0393 34.4899 89.1435 33.7738L89.1514 33.6964C89.2498 33.4302 89.3035 33.1495 89.3102 32.8658C89.4178 32.6291 89.4703 32.3711 89.4637 32.1112C89.7104 31.1099 89.9177 30.1008 90.0673 29.0799L90.0844 29.0641L90.0752 29.0418C90.3127 28.0537 90.524 27.0603 90.667 26.0525C90.6761 26.045 90.6822 26.0345 90.6841 26.0229C90.686 26.0114 90.6837 25.9995 90.6775 25.9895C90.9257 25.0121 91.1237 24.0227 91.2707 23.0251C91.28 23.0178 91.2862 23.0073 91.2882 22.9956C91.2901 22.9839 91.2876 22.972 91.2812 22.9621C91.3762 22.7175 91.4273 22.4581 91.4321 22.1957C91.4649 22.0894 91.5056 21.9844 91.5318 21.8755C91.7798 20.8362 91.852 19.8035 91.4295 18.7864C91.3796 18.4046 91.1053 18.1041 91.0358 17.7274L91.1224 17.6277L91.8809 17.5739H98.0105H99.1456C99.4513 17.5739 99.6285 17.6986 99.5931 18.0306C99.4618 18.3075 99.4618 18.6132 99.3975 18.9059C99.206 19.8756 99.0301 20.848 98.8477 21.8204C98.8385 21.8287 98.8326 21.8399 98.8309 21.8522C98.8292 21.8644 98.8319 21.8769 98.8385 21.8873C98.7413 22.1304 98.6901 22.3893 98.6876 22.6511C98.3937 23.878 98.1798 25.1208 97.9501 26.3608L97.9304 26.5852C97.786 27.0558 97.6876 27.5392 97.6365 28.0287L97.6299 28.1035C97.542 28.3206 97.4945 28.5518 97.4895 28.7859L97.4738 28.9171C97.2814 29.6499 97.1333 30.3935 97.0302 31.1441C97.0302 31.1716 97.0302 31.1979 97.021 31.2254C96.876 31.7179 96.7763 32.2226 96.7231 32.7332C96.7139 32.7411 96.7077 32.7521 96.7058 32.7641C96.7039 32.7761 96.7063 32.7884 96.7127 32.7988C96.6214 33.018 96.5742 33.253 96.5736 33.4904L96.5657 33.5652C96.2639 34.7908 96.0513 36.0336 95.8242 37.275L95.8085 37.4246C95.6826 37.872 95.5879 38.3275 95.5251 38.788C95.5172 38.8615 95.5106 38.9337 95.5027 39.0072C95.2403 39.9809 95.1091 40.9756 94.9083 41.9663C94.8989 41.9725 94.8921 41.982 94.8895 41.993C94.8868 42.004 94.8883 42.0155 94.8938 42.0254C94.8165 42.1429 94.7712 42.2786 94.7626 42.419C94.7579 42.4212 94.7536 42.4242 94.75 42.428C94.7464 42.4318 94.7436 42.4363 94.7418 42.4412C94.74 42.4461 94.7391 42.4513 94.7393 42.4565C94.7395 42.4617 94.7407 42.4668 94.7429 42.4715C93.7614 44.5528 91.873 45.3402 89.8324 45.8979C89.3075 46.0396 88.7826 46.1052 88.2459 46.2062L87.3273 46.243H86.893L86.2696 46.2141Z" fill="white"/>
<path d="M120.853 22.1445C120.853 22.6441 120.855 23.1449 120.86 23.6471C120.497 26.353 119.913 29.0195 119.416 31.7004C119.194 32.8815 118.982 34.0743 118.76 35.2593C118.497 36.6542 118.665 38.0439 118.781 39.4349C118.819 39.9034 118.781 39.9598 118.299 39.9598C116.246 39.9598 114.193 39.9625 112.141 39.9677C111.852 39.9677 111.562 39.9835 111.273 39.9913C110.772 39.8693 110.703 39.784 110.651 39.2578C110.638 39.1082 110.616 38.9597 110.585 38.8129C110.493 38.4048 110.373 38.334 110.022 38.5505C109.26 39.0045 108.498 39.4572 107.703 39.8509L107.628 39.8706L107.329 40.0018L105.885 40.448H105.851L105.821 40.4651C105.535 40.4763 105.252 40.5234 104.979 40.6055L104.535 40.6278H103.7L103.034 40.6015C102.759 40.5189 102.474 40.4717 102.187 40.4611L102.157 40.4441L102.123 40.4506C101.533 40.2485 100.929 40.0806 100.38 39.7656C99.236 39.1172 98.3707 38.0697 97.95 36.8235C97.9384 36.5899 97.8883 36.3598 97.8017 36.1425L97.7912 35.9916C97.7519 35.3039 97.8503 34.6255 97.9461 33.9484C97.9505 33.9457 97.9543 33.9421 97.9573 33.938C97.9603 33.9338 97.9624 33.929 97.9635 33.924C97.9646 33.919 97.9647 33.9138 97.9637 33.9087C97.9628 33.9036 97.9608 33.8988 97.9579 33.8945C98.1692 33.3053 98.3371 32.7017 98.6258 32.14C99.1389 31.1414 99.8777 30.3291 100.677 29.5615L100.77 29.4919L100.836 29.4263L102.355 28.362L103.299 27.8975C104.294 27.4067 105.354 27.0878 106.385 26.6902C106.389 26.6926 106.393 26.6942 106.398 26.6947C106.402 26.6952 106.407 26.6946 106.411 26.6931C106.415 26.6916 106.419 26.6891 106.422 26.6859C106.425 26.6826 106.427 26.6787 106.429 26.6745C106.479 26.674 106.528 26.6674 106.577 26.6548C108.333 26.042 110.09 25.4331 111.81 24.7231C112.466 24.46 112.998 23.9602 113.302 23.3229C113.723 22.4542 113.721 21.5435 113.473 20.6328C113.368 20.2483 113.079 20.0029 112.703 19.8612C112.188 19.679 111.634 19.6373 111.098 19.7404C110.094 19.9032 109.565 20.5672 109.591 21.5881C109.6 21.8886 109.663 22.1865 109.688 22.487C109.729 22.9634 109.547 23.3177 109.099 23.5224C108.136 23.9646 107.161 24.378 106.089 24.4567C104.766 24.5538 103.637 24.1667 102.91 22.9909C101.891 21.3414 101.699 19.5528 102.105 17.6789C102.162 17.4099 102.296 17.3429 102.53 17.4899C103.353 18.0069 104.271 18.1329 105.213 18.1014C107.026 18.0257 108.832 17.8425 110.623 17.5529C112.338 17.2904 114.054 17.2209 115.777 17.4965C116.704 17.6651 117.617 17.9046 118.508 18.213C119.495 18.7379 120.222 19.4951 120.558 20.5921C120.711 21.1013 120.755 21.6275 120.853 22.1445ZM112.548 26.7755C111.826 27.0603 111.145 27.282 110.539 27.6757C109.116 28.6105 107.893 29.8178 106.94 31.228C106.062 32.5049 105.54 33.8631 105.793 35.4496C105.948 36.418 106.732 37.2487 107.642 37.3288C108.267 37.3839 108.789 37.0807 109.308 36.8038C110.233 36.2986 110.909 35.5769 111.079 34.4995C111.367 32.6833 111.771 30.8895 112.113 29.0838C112.252 28.3292 112.397 27.5786 112.548 26.7755Z" fill="white"/>
<path d="M96.8979 14.9153C100.741 14.9153 103.856 11.8002 103.856 7.95764C103.856 4.11504 100.741 1 96.8979 1C93.0553 1 89.9403 4.11504 89.9403 7.95764C89.9403 11.8002 93.0553 14.9153 96.8979 14.9153Z" fill="white" stroke="black" stroke-width="0.836482"/>
<path d="M102.116 9.05994C102.219 10.0389 101.82 11.2068 101.42 12.3787M94.3183 1.49735L94.565 2.09706L94.3183 1.49735ZM90.4812 7.91302C90.8552 8.79355 91.7279 9.03238 92.5034 9.36701L90.4812 7.91302ZM93.3157 3.25316C91.5979 3.66784 90.493 5.47352 90.5468 5.48401L93.3157 3.25316ZM94.9534 4.07989C94.4062 5.03653 94.3235 6.29762 94.6043 7.79098L94.9534 4.07989ZM96.8221 1.45798C97.4205 1.20471 98.381 1.24408 99.5542 1.52228L96.8221 1.45798ZM93.6188 12.1057C93.338 12.4102 93.1727 12.9206 93.0375 13.4823L93.6188 12.1057ZM97.4624 3.00646C98.1921 3.40014 99.5319 4.07464 100.377 5.1402L97.4624 3.00646ZM96.3746 11.8774C97.0458 12.7263 97.9953 13.311 99.0555 13.5282L96.3746 11.8774ZM100.334 7.70306C99.268 8.36193 98.1291 8.89437 96.9402 9.28959L100.334 7.70306ZM102.28 4.75702C102.205 4.07333 101.886 3.41457 101.509 2.75975L102.28 4.75702ZM103.215 7.4944C103.363 7.56248 103.495 7.65966 103.603 7.78009C103.712 7.90052 103.795 8.04171 103.848 8.19516L103.215 7.4944Z" stroke="black" stroke-width="0.836482"/>
<path d="M94.352 1.56167C95.2687 1.37297 96.2056 1.30023 97.1405 1.34515C97.3951 1.81756 97.4909 2.45533 97.6116 3.08915C96.5277 3.51957 95.4897 3.95 94.8165 4.34761C94.1 3.98018 93.7063 3.89357 92.873 3.37391C93.1486 2.71909 93.6486 2.11545 94.352 1.56167ZM102.279 4.63631C102.744 5.60607 103.198 6.57715 103.382 7.56923C102.945 8.22536 102.491 8.95629 102.122 9.28304C101.525 8.93136 100.81 8.35658 100.114 7.83955C100.13 6.71888 100.172 5.88821 100.203 4.95257C100.946 4.76622 101.661 4.614 102.279 4.63631ZM90.0753 9.28436C89.802 7.86664 89.9768 6.39903 90.5753 5.08511L90.7432 5.13104C90.5149 6.11917 90.3417 7.09943 90.57 7.99178C90.3197 8.37785 90.1929 8.831 90.2065 9.29092L90.0753 9.28436ZM94.5593 7.54167C95.4779 8.10463 96.3742 8.65316 97.2403 9.1925C97.1628 10.2121 96.8348 11.1347 96.5671 12.0795C95.6144 12.3839 94.5567 12.174 93.5488 12.1858C92.8022 11.1268 92.6854 10.2331 92.3927 9.29879C93.0368 8.62551 93.7624 8.03524 94.5527 7.54167H94.5593ZM101.997 12.6844C100.995 13.7661 99.6755 14.5014 98.2284 14.7841L97.9187 14.6437C98.2861 14.3904 98.5538 13.9613 98.7743 13.4482C99.5262 13.4009 100.542 12.6989 101.51 12.1136C101.695 12.2819 101.856 12.4738 101.991 12.6844H101.997ZM94.1144 14.3248C93.188 13.9176 92.3614 13.3135 91.692 12.5545C92.1513 12.9731 92.5318 13.3419 93.0738 13.3747C93.1289 13.6358 93.3979 13.9311 94.1079 14.3248H94.1144Z" fill="black"/>
</svg>
