<svg width="160" height="45" viewBox="0 0 160 45" fill="none" xmlns="http://www.w3.org/2000/svg">
<path fill-rule="evenodd" clip-rule="evenodd" d="M134.736 37.8689C134.084 37.6612 133.516 37.4207 133.035 37.1468L130.768 43.2241C131.781 43.6773 132.833 44.0408 133.91 44.3104C135.009 44.5843 136.211 44.7212 137.517 44.7212C139.577 44.7212 141.372 44.2901 142.901 43.4318C144.431 42.5736 145.642 41.0935 146.533 39.0003L159.106 9.22406H149.833L144.784 23.9029L139.685 9.22406H129.893L140.559 33.2795L139.117 36.5298C138.84 37.1476 138.503 37.574 138.11 37.8145C137.716 38.0557 137.194 38.1755 136.539 38.1755C135.992 38.1755 135.39 38.0759 134.736 37.8689ZM120.321 23.1068C120.836 23.057 121.354 23.0111 121.868 22.9785V27.6667C121.42 28.0099 120.926 28.2876 120.401 28.4916C119.865 28.6986 119.277 28.7982 118.622 28.7982C117.731 28.7982 117.035 28.5702 116.536 28.1056C116.039 27.6418 115.786 27.0489 115.786 26.3276C115.786 25.6397 116.01 25.0141 116.458 24.446C116.906 23.8819 117.66 23.5091 118.725 23.3387C119.254 23.2378 119.786 23.1604 120.321 23.1068ZM122.436 32.4056L123.157 34.3657H130.731V18.4972C130.731 15.1309 129.752 12.6479 127.792 11.0519C125.835 9.45128 123.207 8.65524 119.911 8.65524C117.54 8.65524 115.505 8.99996 113.805 9.68784C112.119 10.3637 110.561 11.3213 109.196 12.5195L113.212 17.0008C113.992 16.3777 114.849 15.8577 115.761 15.4538C116.65 15.0751 117.606 14.8834 118.572 14.8905C119.464 14.8905 120.239 15.1309 120.889 15.6118C121.541 16.0927 121.868 16.8467 121.868 17.8793V18.4972C120.999 18.5373 120.131 18.5967 119.265 18.6753C118.24 18.7717 117.218 18.9014 116.201 19.0644C115.038 19.2239 113.898 19.5177 112.802 19.9398C111.736 20.3499 110.799 20.8845 109.992 21.535C109.193 22.1773 108.544 22.9852 108.088 23.9029C107.624 24.8312 107.392 25.9175 107.392 27.1524C107.392 28.3546 107.595 29.4199 108.01 30.3443C108.408 31.2563 108.996 32.0732 109.734 32.741C110.472 33.4125 111.342 33.9183 112.338 34.2623C113.332 34.6015 114.415 34.7758 115.583 34.7758C117.129 34.7758 118.485 34.5439 119.655 34.0794C120.819 33.6195 121.748 33.06 122.436 32.4048V32.4056ZM67.3223 2.87211L78.4652 34.365H85.3175L89.2308 21.174L93.1985 34.365H100.101L109.017 9.22329H99.7933L96.0831 22.5668L92.2196 9.22251H86.3455L82.482 22.5676L76.0406 2.87289H67.3223V2.87211ZM51.3627 9.22251V15.5075H54.9188V26.5338C54.9188 27.8021 55.0479 28.9507 55.3047 29.9833C55.5615 31.0151 56.0011 31.8897 56.6198 32.611C57.2368 33.3324 58.0531 33.8926 59.0647 34.2864C60.0801 34.6801 61.3244 34.8793 62.7997 34.8793C64.5537 34.8793 66.0913 34.6716 67.4141 34.2615C68.7362 33.8467 69.9633 33.2499 71.0947 32.4577L68.7774 26.9944C68.3037 27.3555 67.7939 27.6666 67.2561 27.9228C66.7043 28.1948 66.0973 28.3367 65.482 28.3375C64.8268 28.3375 64.4082 28.0971 64.2175 27.6162C64.0308 27.1353 63.9358 26.4637 63.9358 25.6055V15.5083H69.9835L67.758 9.22329H63.9358V2.88534H54.9195V9.22329H51.3627V9.22251ZM41.9114 15.5324C42.6156 16.3028 43.0179 17.3611 43.1214 18.7034H35.291C35.4279 17.3976 35.8839 16.3487 36.655 15.5573C37.4301 14.7699 38.3296 14.3715 39.3614 14.3715C40.3566 14.3715 41.2064 14.7605 41.9114 15.5324ZM36.7087 27.0232C35.7967 26.1821 35.3081 25.0047 35.2373 23.4912H51.5704C51.537 18.4427 50.4133 14.7076 48.1956 12.286C45.9818 9.86603 43.0015 8.65524 39.2579 8.65524C37.4386 8.65524 35.7469 8.94549 34.1844 9.52987C32.6212 10.1143 31.2742 10.9725 30.1381 12.1078C29.002 13.24 28.1111 14.6205 27.4605 16.2538C26.8053 17.8871 26.4816 19.7476 26.4816 21.8455C26.4816 24.0095 26.8217 25.9043 27.5096 27.5376C28.1982 29.1662 29.1265 30.5256 30.2953 31.6041C31.4602 32.6904 32.8243 33.5067 34.3914 34.0537C35.9539 34.6015 37.6246 34.8785 39.4112 34.8785C40.8873 34.8785 42.218 34.7587 43.4031 34.5183C44.589 34.2778 45.6379 33.9339 46.546 33.4865C47.4079 33.0721 48.2212 32.5632 48.9707 31.9691C49.6756 31.401 50.3013 30.7746 50.853 30.0868L45.3391 25.7587C44.6465 26.617 43.9011 27.2559 43.0965 27.6652C42.288 28.0807 41.3184 28.2838 40.1862 28.2838C38.7778 28.2838 37.6168 27.8652 36.708 27.0232H36.7087ZM10.1236 28.2099C9.76254 28.1554 9.38981 28.0815 9.01241 27.9733V15.8149C9.42716 15.678 9.83724 15.5659 10.252 15.4834C10.6924 15.394 11.141 15.3508 11.5904 15.3542C13.0331 15.3542 14.2275 15.8686 15.1722 16.8965C16.1137 17.9291 16.586 19.5251 16.586 21.6891C16.586 23.9231 16.1052 25.5813 15.1434 26.6637C14.1816 27.7453 12.9296 28.2838 11.3834 28.2838C10.9025 28.2838 10.4839 28.2589 10.1228 28.2099H10.1236ZM11.2052 8.83422C10.4637 8.94771 9.73104 9.11256 9.01241 9.32756V0H0V32.8686C1.54227 33.4538 3.22539 33.9424 5.04546 34.337C6.86941 34.7346 8.91281 34.9338 11.1764 34.9338C13.2362 34.9338 15.1348 34.656 16.8724 34.109C18.6045 33.5573 20.1095 32.7239 21.3778 31.6049C22.6509 30.4937 23.6375 29.076 24.3425 27.3563C25.0468 25.6397 25.3993 23.6126 25.3993 21.279C25.3993 19.5251 25.1425 17.8793 24.6242 16.3331C24.1107 14.787 23.3636 13.4478 22.3855 12.3125C21.4074 11.1803 20.1927 10.2854 18.75 9.63414C17.3074 8.98362 15.678 8.65602 13.8587 8.65602C12.8595 8.65602 11.9756 8.7136 11.2052 8.83422Z" fill="white"/>
</svg>
