<svg width="240" height="58" viewBox="0 0 240 58" fill="none" xmlns="http://www.w3.org/2000/svg">
<path d="M81.6892 19.7401H77.8734V39.3731H81.6892V19.7401Z" fill="white"/>
<path d="M96.4572 32.4071C96.4572 35.1168 94.714 36.3342 92.3928 36.3342C90.0716 36.3342 88.5202 35.1168 88.5202 32.5445V25.5478H84.7045V33.4303C84.7045 37.355 87.1654 39.6502 91.2583 39.6502C93.8305 39.6502 95.2682 38.7028 96.2322 37.6322H96.4549L96.7865 39.3754H100.297V25.5478H96.4572V32.4071Z" fill="white"/>
<path d="M133.888 36.6374C131.095 36.6374 129.52 35.3655 129.271 33.5133H141.382C141.438 33.1281 141.465 32.7395 141.465 32.3503C141.439 27.3763 137.675 25.2707 133.648 25.2707C128.975 25.2707 125.463 28.0656 125.463 32.573C125.463 36.8577 128.838 39.6502 133.897 39.6502C138.13 39.6502 140.948 37.7719 141.531 34.8941H137.76C137.289 36.0287 135.934 36.6374 133.888 36.6374ZM133.651 28.2859C136.086 28.2859 137.495 29.3636 137.718 30.8913H129.354C129.712 29.4275 131.123 28.2859 133.639 28.2859H133.651Z" fill="white"/>
<path d="M147.947 27.5327H147.711L147.351 25.5407H143.883V39.3754H147.699V33.4304C147.699 30.7468 149.245 29.2546 152.123 29.2546C152.646 29.2473 153.168 29.2934 153.682 29.392V25.5478H153.149C150.605 25.5478 149.025 26.0736 147.947 27.5327Z" fill="white"/>
<path d="M172.416 35.0599H172.196L168.932 26.4052H165.005L161.798 35.0339H161.55L158.508 25.5478H154.719L159.392 39.3754H163.541L166.86 30.5525H167.08L170.344 39.3754H174.52L179.193 25.5478H175.403L172.416 35.0599Z" fill="white"/>
<path d="M194.38 35.3488V30.7207C194.38 26.9594 191.199 25.273 187.244 25.273C183.042 25.273 180.415 27.265 180.055 30.247H183.871C184.148 28.9466 185.254 28.229 187.244 28.229C189.233 28.229 190.56 28.9751 190.56 30.4957V30.8486L184.337 31.3223C181.462 31.5449 179.363 32.8169 179.363 35.5265C179.363 38.319 181.77 39.6454 185.308 39.6454C188.165 39.6454 189.906 38.8496 190.972 37.6487H191.161C191.76 38.9988 192.975 39.3707 194.297 39.3707H195.901V36.5544H195.541C194.738 36.5544 194.38 36.1684 194.38 35.3488ZM190.562 33.8827C190.562 36.0689 187.957 36.7866 185.723 36.7866C184.202 36.7866 183.208 36.4005 183.208 35.3488C183.208 34.4014 184.065 33.9396 185.339 33.8282L190.564 33.4422L190.562 33.8827Z" fill="white"/>
<path d="M208.488 25.5478L204.035 35.5597H203.786L199.279 25.5478H195.158L201.6 39.3754H206.164L212.578 25.5478H208.488Z" fill="white"/>
<path d="M224.776 34.8941C224.303 36.0287 222.95 36.6374 220.904 36.6374C218.111 36.6374 216.536 35.3655 216.288 33.5133H228.398C228.454 33.1281 228.482 32.7395 228.481 32.3503C228.455 27.3763 224.691 25.2707 220.665 25.2707C215.992 25.2707 212.481 28.0656 212.481 32.573C212.481 36.8577 215.854 39.6502 220.913 39.6502C225.146 39.6502 227.965 37.7719 228.547 34.8941H224.776ZM220.655 28.2859C223.09 28.2859 224.499 29.3636 224.722 30.8913H216.361C216.723 29.4275 218.13 28.2859 220.646 28.2859H220.655Z" fill="white"/>
<path d="M71.6723 24.5294C71.6723 23.3119 72.5297 22.7885 73.6358 22.7885C74.1503 22.7932 74.6618 22.8673 75.1564 23.0087L75.7936 20.2423C74.87 19.9157 73.8978 19.7475 72.9182 19.7449C70.0972 19.7449 67.8305 21.2394 67.8305 24.3351V25.5478H64.5382V28.5772H67.8305V39.3755H71.6723V28.5749H75.9736V25.5478H71.6723V24.5294Z" fill="white"/>
<path d="M108.717 21.6492H105.164L104.965 25.5478H101.962V28.5772H104.894V35.3939C104.894 37.7151 106.078 39.6573 109.631 39.6573C110.552 39.6573 111.47 39.5556 112.369 39.3541V36.4432C111.851 36.5593 111.322 36.6244 110.792 36.6374C108.885 36.6374 108.719 35.5597 108.719 34.7283V28.5701H112.509V25.5478H108.717V21.6492Z" fill="white"/>
<path d="M120.699 21.6492H117.158L116.959 25.5478H113.949V28.5772H116.881V35.3939C116.881 37.7151 118.065 39.6573 121.618 39.6573C122.537 39.6544 123.453 39.5504 124.349 39.347V36.4432C123.831 36.5593 123.303 36.6244 122.772 36.6374C120.865 36.6374 120.699 35.5597 120.699 34.7283V28.5701H124.501V25.5478H120.699V21.6492Z" fill="white"/>
<path d="M11.4243 19.2167C11.4243 16.9974 12.0733 15.1025 13.4352 13.7406L15.8038 16.1092C13.1676 18.7359 15.4698 26.9027 22.9758 34.4157C30.4817 41.9288 38.6532 44.2287 41.2871 41.5972L43.6556 43.9657C39.2122 48.4092 29.0914 45.2566 20.6191 36.7819C14.7427 30.9032 11.4243 24.2333 11.4243 19.2167Z" fill="white"/>
<path d="M26.3593 46.0074C24.14 46.0074 22.2451 45.3584 20.8809 43.9965L23.2494 41.6279C25.8809 44.2594 34.0477 41.9572 41.5607 34.4465C49.0738 26.9358 51.3713 18.769 48.7398 16.1375L51.1084 13.769C55.5542 18.2124 52.3992 28.3332 43.9245 36.8056C38.0458 42.6914 31.3759 46.0074 26.3593 46.0074Z" fill="white"/>
<path d="M44.7093 33.4161C43.2716 29.2759 40.3346 24.8514 36.4383 20.9575C27.966 12.4828 17.8452 9.32792 13.4017 13.7737C13.0867 14.0911 13.3591 14.8751 14.0128 15.5288C14.6665 16.1825 15.4505 16.4525 15.7656 16.1375C18.3994 13.5061 26.5662 15.8083 34.0769 23.3213C37.6297 26.8742 40.2777 30.8415 41.5544 34.5128C42.6724 37.7316 42.5634 40.3276 41.2607 41.6303C40.9433 41.9453 41.2181 42.7317 41.8694 43.383C42.5208 44.0344 43.3071 44.3091 43.6245 43.9917C45.9007 41.7156 46.2868 37.9543 44.7093 33.4161Z" fill="white"/>
<path d="M51.1036 13.7737C48.8227 11.4928 45.0662 11.1067 40.5233 12.6866C36.3854 14.1219 31.9586 17.0613 28.0647 20.9552C19.5923 29.4275 16.4374 39.5484 20.8808 43.9942C21.1982 44.3092 21.9822 44.0368 22.6359 43.3854C23.2896 42.7341 23.562 41.9477 23.2446 41.6303C20.6061 38.9989 22.9154 30.8321 30.4285 23.319C33.9813 19.7662 37.9486 17.1181 41.6199 15.8415C44.8388 14.7259 47.4347 14.8325 48.7398 16.1352C49.0548 16.4502 49.8412 16.1778 50.4925 15.5241C51.1439 14.8704 51.4186 14.0888 51.1036 13.7737Z" fill="white"/>
</svg>
