<svg width="370" height="200" viewBox="0 0 370 200" fill="none" xmlns="http://www.w3.org/2000/svg">
<path d="M107.853 34.2332H0V186.439L39.4116 199.699C39.4116 163.954 39.6039 94.0007 39.6039 94.0007C39.6039 94.0007 28.8378 72.861 28.8378 71.9001C29.2223 72.0923 78.4387 72.0923 78.8232 71.9001C78.8232 72.861 68.0571 94.0007 68.0571 94.0007C68.0571 94.0007 68.2494 163.954 68.2494 199.699L107.661 186.439V34.2332H107.853Z" fill="white"/>
<path d="M79.0156 0.602051H28.8379L40.373 22.8948H67.6727L79.0156 0.602051Z" fill="white"/>
<path d="M329.904 99.9582L330.865 98.6129L369.7 34.2332H325.674L307.987 63.2521L290.3 34.2332H246.274L285.109 98.6129L286.071 99.9582L284.725 102.072L246.467 165.875H290.492L307.987 136.664L325.482 165.875H369.508L331.25 102.072L329.904 99.9582Z" fill="white"/>
<path d="M128.04 34.2332V166.068H235.893V34.2332H128.04ZM196.289 127.824H167.644V71.9001H196.289V127.824Z" fill="white"/>
</svg>
