<svg width="375" height="114" viewBox="0 0 375 114" fill="none" xmlns="http://www.w3.org/2000/svg">
<path d="M175.009 77.9436C167.972 57.736 159.975 57.8964 153.738 37.0473C143.182 51.6417 145.422 51.9624 150.699 68.0002C151.819 73.4531 150.22 80.3493 153.098 85.4814C155.977 90.6135 162.534 92.8588 166.693 96.7078C171.331 101.038 174.05 108.095 180.127 110.019C177.888 98.6324 180.607 93.9814 175.009 77.9436Z" fill="white"/>
<path d="M205.876 9.46249C219.311 26.1418 214.193 30.3116 227.467 46.8305C239.622 61.906 244.9 59.8211 255.936 71.6891C262.333 63.991 256.735 55.6513 254.496 47.472C253.377 42.0192 254.976 35.1229 252.097 29.9909C249.218 24.8588 242.661 22.6135 238.503 18.7644C234.185 14.755 231.466 8.33985 226.348 6.09456C217.392 3.04738 210.514 7.37758 199.799 2.72662C201.718 4.49078 203.637 6.73607 205.876 9.46249Z" fill="white"/>
<path d="M222.19 51.1605C208.595 33.3586 208.435 16.3585 189.403 2.56604C184.445 4.65095 180.607 9.78304 175.329 12.1887C180.607 35.7642 196.76 42.6605 208.435 62.387C218.831 81.3116 212.434 88.3682 225.388 106.01C230.826 101.519 239.463 101.359 244.101 96.5474C248.739 91.5757 247.939 83.2361 251.777 77.6229C240.102 63.9907 234.824 66.8775 222.19 51.1605Z" fill="white"/>
<path d="M217.392 106.331C206.996 87.7269 212.753 84.359 202.358 65.7552C190.523 45.8683 173.89 38.8117 168.932 14.5947C155.977 18.9249 156.457 25.34 160.935 37.6891C167.972 57.8967 174.209 55.6514 181.246 75.859C187.324 93.0194 182.846 97.6704 186.524 110.821C200.598 108.095 209.235 119.161 219.791 110.661C219.151 109.218 218.351 107.935 217.392 106.331Z" fill="white"/>
<path d="M10.5973 56.4531C10.5973 50.6795 10.5973 45.2266 10.4374 40.0946C10.4374 34.9625 9.95757 30.4719 9.31784 26.6228C8.6781 22.7737 7.55857 19.5662 6.2791 17.0001C4.8397 14.4341 2.92049 12.9907 0.521484 12.3492C3.40029 12.3492 6.43903 11.8681 9.63771 11.0662C12.8364 10.2643 15.7152 9.30201 18.594 8.01899C21.4728 6.89634 24.0317 5.61332 26.4308 4.49068C28.8298 3.36803 30.589 2.40576 31.8685 1.60388L32.5082 1.12274V32.8775C34.7473 28.5473 37.3062 24.3775 40.345 20.3681C43.3837 16.519 46.7423 13.1511 50.4208 10.2643C54.0993 7.37748 58.2576 5.13219 62.8956 3.52841C67.5337 1.92463 72.4917 1.12274 77.9294 1.12274C87.5254 1.12274 95.842 2.40576 102.559 4.81143C109.276 7.2171 114.714 10.9058 119.032 15.7171C123.351 20.5285 126.389 26.6228 128.309 34.0002C130.228 41.3776 131.187 49.8776 131.187 59.821V69.2833C131.347 68.9626 131.347 69.1229 131.347 69.4437C131.347 75.2173 131.347 80.6701 131.507 85.8022C131.507 90.9343 131.987 95.4249 132.467 99.274C133.107 103.123 134.066 106.331 135.506 108.897C136.945 111.463 138.864 112.906 141.263 113.548H99.3605C101.76 112.906 103.519 111.623 104.798 109.378C106.078 107.132 107.037 104.246 107.837 100.717C108.477 97.1891 108.957 93.1796 109.116 88.5287C109.276 83.8777 109.276 78.906 109.276 73.6135V60.4625C109.116 59.5003 108.957 57.5757 108.957 55.0097C108.957 52.4436 108.637 49.3965 108.317 46.0285C107.997 42.6606 107.357 38.9719 106.398 34.9625C105.598 30.953 104.159 27.1039 102.239 23.5756C100.32 19.8869 97.7612 16.519 94.7225 13.6322C91.5238 10.585 87.6854 8.33974 83.0473 6.73597C82.5675 6.41521 81.9278 6.25483 80.8082 6.25483C79.8486 6.25483 78.5691 6.09445 77.2897 5.93408C76.1701 6.09445 74.8907 6.09445 73.7711 6.09445C72.6516 6.09445 71.692 6.09445 71.2122 6.25483C66.4142 7.05672 61.936 8.82088 58.0976 11.0662C54.0993 13.4718 50.5807 16.3586 47.3821 19.7266C44.1834 23.2549 41.4645 26.9436 39.0655 31.1134C36.6665 35.2832 34.5874 39.453 32.8281 43.6229V69.6041C32.8281 75.3777 32.8281 80.8305 32.988 85.9626C32.988 91.0947 33.4678 95.5853 34.1076 99.4343C34.7473 103.283 35.7069 106.491 37.1463 109.057C38.4258 111.623 40.345 113.066 42.9039 113.708H0.521484C3.08042 113.066 4.99963 111.623 6.2791 109.057C7.7185 106.491 8.6781 103.444 9.31784 99.4343C9.95757 95.5853 10.2774 91.0947 10.4374 85.9626C10.4374 80.8305 10.5973 75.3777 10.5973 69.6041V56.4531Z" fill="white"/>
<path d="M249.858 110.019C251.938 109.538 254.017 108.576 255.936 106.812C258.015 105.048 260.094 102.963 262.333 100.557C269.21 90.9344 276.088 83.2363 282.805 77.1419C289.522 71.0476 296.239 65.5947 302.796 60.7834C299.598 57.7362 296.399 54.689 293.2 51.6418C290.002 48.5947 286.803 45.2267 283.604 41.6984C280.406 38.0097 277.047 33.8399 273.689 29.0286C270.33 24.2172 266.811 18.604 263.293 12.1889C261.214 9.14172 259.294 6.4153 257.535 4.33038C255.776 2.0851 254.017 0.802072 252.417 0.160561H295.28C293.041 0.641694 291.441 1.44358 290.482 2.40585C289.522 3.5285 288.882 4.65114 288.562 6.09454C288.402 7.37756 288.402 8.82096 288.722 10.104C289.042 11.5474 289.362 12.8304 289.842 13.9531C295.44 22.2927 300.557 29.1889 305.195 34.8022C309.834 40.255 314.312 45.2267 318.63 49.3966C324.547 45.0664 330.305 40.0946 335.903 34.8022C341.5 29.5097 347.258 22.7738 353.176 14.5946C355.095 10.9059 355.575 7.69832 354.775 5.13227C353.975 2.56623 352.216 0.802072 349.657 0.000183105H374.767C370.448 0.96245 365.65 4.81152 360.692 11.2266H360.852C353.815 20.8493 347.098 28.8682 340.701 35.1229C334.303 41.3777 327.746 46.8305 321.349 51.8022C324.707 55.0098 328.066 58.2173 331.265 61.4249C334.623 64.6324 337.822 68.0004 341.181 71.6891C344.539 75.3778 348.058 79.5476 351.576 84.1985C355.095 88.8495 358.773 94.4627 362.772 100.878C364.371 103.283 365.97 105.208 367.57 106.972C369.169 108.736 370.608 109.699 371.728 110.18H328.866C330.945 109.699 332.384 109.057 333.504 108.095C334.463 107.133 335.263 106.01 335.583 104.727C335.903 103.444 336.063 102.161 335.743 100.878C335.583 99.5948 335.263 98.3118 334.783 97.1891C329.345 89.3306 324.228 82.7551 319.59 77.623C314.792 72.491 310.313 67.84 305.835 63.5098C300.078 67.84 294.48 72.491 288.722 77.7834C282.965 83.0759 277.207 89.491 271.13 97.3495C269.85 100.717 269.53 103.604 270.33 106.01C271.13 108.416 272.729 109.859 275.128 110.34H249.858V110.019Z" fill="white"/>
</svg>
