<svg width="125" height="34" viewBox="0 0 125 34" fill="none" xmlns="http://www.w3.org/2000/svg">
<path d="M31.3966 19.5349V26.6903H25.4362V2.95764H31.3966V14.993H34.0653L37.8647 8.63418H44.1092L39.0005 17.3199L44.1129 26.6903H37.8647L33.9484 19.5375L31.3966 19.5349Z" fill="white"/>
<path d="M62.4501 21.5779L62.3923 13.8007V12.8923C62.1662 10.1671 59.7249 8.18067 56.9432 8.40808H49.1722C48.8547 8.37667 48.5348 8.37667 48.2173 8.40808C47.571 8.46964 46.9432 8.65802 46.3697 8.96244C45.7963 9.26686 45.2885 9.68136 44.8754 10.1822C44.4623 10.6831 44.152 11.2605 43.9622 11.8813C43.7725 12.5022 43.707 13.1544 43.7696 13.8007V22.4863C43.997 25.2115 46.4382 27.1979 49.1634 26.9718H57.9584C60.6899 26.7444 62.6763 24.3031 62.4501 21.5779ZM56.5449 21.294C56.5355 21.456 56.4909 21.6139 56.4141 21.7569C56.3374 21.8999 56.2304 22.0243 56.1006 22.1217C55.9709 22.2191 55.8214 22.287 55.6627 22.3207C55.504 22.3543 55.3398 22.353 55.1817 22.3167H50.7553C50.0743 22.2589 49.676 21.6885 49.7338 21.01V13.9741C49.7647 13.6582 49.9193 13.3674 50.1639 13.1651C50.4085 12.9629 50.7232 12.8657 51.0392 12.8948H55.4669C56.0951 12.9513 56.5462 13.5758 56.4884 14.258H56.5462L56.5449 21.294Z" fill="white"/>
<path d="M74.1442 13.2327C72.7532 13.2283 71.3714 13.4585 70.057 13.9137V26.5735H64.0966V8.63419H69.3195L69.66 10.3379C70.738 9.70969 71.8173 9.14556 72.9531 8.8616C73.8789 8.52301 74.8571 8.34992 75.8429 8.35024H77.3192C77.9498 8.3061 78.583 8.3874 79.182 8.58946C79.781 8.79152 80.334 9.11031 80.8091 9.52742C81.2841 9.94452 81.6718 10.4516 81.9496 11.0195C82.2275 11.5873 82.39 12.2046 82.4278 12.8357V26.6903H76.5854V14.4276C76.5619 14.1033 76.4196 13.7992 76.1859 13.5732C75.955 13.3564 75.6508 13.2348 75.334 13.2327H74.1442Z" fill="white"/>
<path d="M101.62 27.6527V8.63422H88.1666C86.8556 8.77772 85.6526 9.42808 84.8145 10.4464C83.9765 11.4648 83.5697 12.7704 83.6812 14.0846V21.4648C83.7667 22.7361 84.3524 23.9217 85.3101 24.7622C86.2678 25.6026 87.5194 26.0293 88.7911 25.949H89.9834C91.9698 25.949 93.8997 25.6651 95.773 25.2681L95.66 26.9718C95.6576 27.288 95.536 27.5918 95.3195 27.8224C95.0834 28.031 94.7824 28.1513 94.4676 28.1629C92.2538 28.1629 88.9607 28.0498 84.6461 27.7093V32.0804C88.6202 32.4774 92.5377 32.7614 96.5118 32.7614H97.14C99.8062 32.5352 101.791 30.2636 101.62 27.6527ZM95.773 21.0678C94.4228 21.2974 93.0555 21.413 91.6859 21.4133V21.3555H90.834C90.6811 21.353 90.5303 21.3199 90.3903 21.2584C90.2503 21.1969 90.124 21.1081 90.0188 20.9972C89.9135 20.8863 89.8314 20.7556 89.7772 20.6126C89.723 20.4696 89.6979 20.3173 89.7032 20.1644V14.2517C89.7598 13.5695 90.3842 13.1724 91.0652 13.229H95.7768L95.773 21.0678Z" fill="white"/>
<path d="M115.814 8.34647C112.067 8.40426 108.377 8.57388 104.687 9.0287L104.455 13.0631L108.713 12.7226L113.596 12.5517C113.754 12.5473 113.911 12.5753 114.057 12.6338C114.204 12.6924 114.337 12.7803 114.448 12.8922C114.674 13.1762 114.845 13.4601 114.845 13.7441V15.106H107.294C104.683 15.2769 102.645 17.6038 102.866 20.2159V22.4863C102.91 23.1128 103.077 23.7246 103.358 24.2864C103.639 24.8482 104.028 25.3492 104.502 25.7605C104.977 26.1718 105.528 26.4854 106.124 26.6833C106.72 26.8812 107.35 26.9596 107.976 26.9139H109.167C110.136 26.9152 111.098 26.7424 112.007 26.4038C113.198 26.1199 114.277 25.552 115.298 24.871L115.697 26.5735H120.918V12.7791C120.753 10.167 118.424 8.18062 115.814 8.34647ZM115.018 21.5741C113.694 21.9808 112.317 22.1924 110.931 22.2023V22.3167H110.079C109.923 22.3167 109.768 22.2858 109.623 22.2259C109.478 22.1659 109.347 22.0781 109.237 21.9674C109.126 21.8566 109.038 21.7252 108.978 21.5805C108.919 21.4359 108.888 21.2808 108.888 21.1243V20.7851C108.884 20.6274 108.912 20.4704 108.97 20.3239C109.029 20.1774 109.117 20.0445 109.229 19.9332C109.332 19.808 109.462 19.7074 109.609 19.6388C109.756 19.5701 109.917 19.535 110.079 19.5362H115.018V21.5741Z" fill="white"/>
<path d="M103.21 31.2285H100.997V33.5567H103.21V31.2285Z" fill="white"/>
<path d="M107.412 33.6697C106.99 33.6691 106.57 33.612 106.163 33.5001L105.198 32.9888C104.959 32.7627 104.766 32.4927 104.63 32.1934C104.377 31.6574 104.302 31.0548 104.415 30.473C104.528 29.8912 104.823 29.3605 105.258 28.9581L106.167 28.5046C106.536 28.4104 106.917 28.3719 107.297 28.3902L108.206 28.5046L109.001 28.7873V30.1505H108.717L108.49 29.9231C108.274 29.7536 108.021 29.637 107.752 29.5826L107.297 29.526C106.9 29.526 106.56 29.6391 106.332 29.9231C106.062 30.2361 105.92 30.6402 105.935 31.0539C105.935 31.3943 106.049 31.8479 106.332 32.1319C106.463 32.2493 106.615 32.3399 106.781 32.3983C106.947 32.4567 107.122 32.4819 107.297 32.4724L107.809 32.4158L108.264 32.2462L108.49 32.0753L108.717 31.9057H109.001V33.2677L108.206 33.6082L107.412 33.6697Z" fill="white"/>
<path d="M115.135 31.0589C115.135 30.3201 114.907 29.5826 114.396 29.0712C113.828 28.6177 113.147 28.2772 112.409 28.3903C111.668 28.3819 110.946 28.6241 110.36 29.0775C109.907 29.5889 109.566 30.3264 109.679 31.0652C109.672 31.7666 109.913 32.448 110.36 32.9888C110.924 33.4653 111.638 33.7267 112.375 33.7267C113.113 33.7267 113.827 33.4653 114.391 32.9888C114.905 32.4209 115.189 31.7964 115.135 31.0589ZM113.376 31.7964L113.148 32.2513L112.808 32.5352C112.695 32.6239 112.553 32.6645 112.411 32.6483C112.24 32.6483 112.014 32.6483 111.899 32.5352C111.73 32.4774 111.615 32.4209 111.559 32.3078L111.275 31.853L111.218 31.1154C111.176 30.8495 111.195 30.5774 111.275 30.3201L111.559 29.81L111.899 29.5826L112.354 29.5261L112.747 29.5801C112.827 29.5815 112.906 29.6031 112.975 29.6428C113.045 29.6826 113.103 29.7392 113.144 29.8075L113.372 30.3176L113.428 31.0564L113.376 31.7964Z" fill="white"/>
<path d="M120.98 29.9231V33.5002H119.332V30.3779L119.219 29.9231L118.992 29.6957L118.482 29.6391L117.97 29.7535L117.573 29.9231V33.5002H115.983V28.5046H117.63V29.0147L118.424 28.5611C118.693 28.4444 118.983 28.3861 119.276 28.3903C119.583 28.3853 119.885 28.4682 120.147 28.6291C120.408 28.7901 120.618 29.0224 120.752 29.2987C121.015 29.023 121.322 28.7929 121.661 28.6177C121.945 28.4826 122.254 28.4054 122.569 28.3903C123.023 28.2772 123.477 28.5046 123.761 28.8451C124.102 29.2987 124.271 29.7535 124.215 30.2636V33.5567H122.626V30.4345L122.512 29.9796C122.486 29.9224 122.447 29.8721 122.397 29.8328C122.348 29.7935 122.29 29.7664 122.228 29.7535L121.774 29.6957L121.377 29.7535L120.98 29.9231Z" fill="white"/>
<path d="M22.9944 4.14998C21.7636 2.91401 20.2923 1.94377 18.6714 1.29932C17.0506 0.654865 15.3147 0.349908 13.5712 0.403316C11.8712 0.372858 10.1818 0.677717 8.59961 1.30047C7.01743 1.92323 5.57349 2.85167 4.3503 4.03274C3.12711 5.2138 2.14866 6.62434 1.47086 8.18373C0.793066 9.74312 0.429215 11.4208 0.400103 13.1209C0.400103 13.2729 0.400103 13.4262 0.400103 13.5782C0.171434 20.726 5.85048 26.6903 13.0033 26.8574H13.5712C20.7241 27.0283 26.682 21.3505 26.7989 14.1976V13.5166C26.8492 11.7769 26.5369 10.0457 25.8819 8.43312C25.227 6.82056 24.2436 5.36194 22.9944 4.14998Z" fill="white"/>
<path d="M13.5715 27.1413C10.0521 27.2028 6.65105 25.8709 4.10937 23.4358C1.56769 21.0008 0.0913592 17.6599 0.00205842 14.1411V13.5732C-0.0597389 10.0537 1.27206 6.65249 3.7072 4.11074C6.14234 1.56898 9.48343 0.0927538 13.0023 0.00377931H13.5702C15.311 -0.0377956 17.0429 0.263991 18.6671 0.891905C20.2912 1.51982 21.7757 2.46156 23.0358 3.66332C24.2959 4.86509 25.3069 6.30333 26.0111 7.8959C26.7152 9.48847 27.0987 11.2042 27.1396 12.945V13.5732C27.1862 15.3153 26.8879 17.0494 26.2618 18.6757C25.6357 20.302 24.6942 21.7885 23.4914 23.0496C22.2887 24.3108 20.8485 25.3216 19.2536 26.024C17.6588 26.7265 15.9407 27.1066 14.1984 27.1426L13.5715 27.1413ZM13.5715 0.687276C10.2383 0.610626 7.01063 1.85795 4.59521 4.15609C2.17979 6.45424 0.773499 9.61591 0.684298 12.9487V13.577C0.57122 20.5602 6.02034 26.3511 13.0601 26.4641H13.5715C15.2256 26.5163 16.8736 26.2394 18.4198 25.6493C19.966 25.0593 21.3796 24.168 22.5785 23.0271C23.7773 21.8862 24.7376 20.5185 25.4035 19.0034C26.0693 17.4884 26.4276 15.8561 26.4574 14.2014V13.5732C26.6283 6.64777 21.0648 0.856891 14.1444 0.743813L13.5715 0.687276Z" fill="white"/>
<path d="M6.75889 9.08898C7.2243 8.66815 7.83414 8.44312 8.46135 8.46077C9.16295 8.44946 9.85919 8.58469 10.5056 8.8578C11.2077 9.13848 11.8744 9.50072 12.492 9.93707L12.7759 9.70966C12.3789 8.91434 11.7544 8.28989 11.0169 7.77978C10.2201 7.32972 9.31994 7.09461 8.40481 7.09754C7.91916 7.10992 7.43929 7.20598 6.9863 7.3815C6.52677 7.56398 6.13276 7.88049 5.85552 8.28989C5.57157 8.63038 5.40069 9.08521 5.22731 9.48224C5.10513 9.9059 5.06672 10.3493 5.11423 10.7877H5.51126C5.80868 10.1433 6.23302 9.56556 6.75889 9.08898ZM15.3315 7.84386C15.8981 7.44683 16.5804 7.21565 17.2614 6.99201C17.8293 6.82239 18.5102 6.93547 19.0782 7.27596C19.6854 7.65464 20.223 8.13489 20.6675 8.69572L21.008 8.58138C20.9515 8.18435 20.8372 7.67299 20.5532 7.3325C20.3475 6.90143 20.0348 6.53028 19.6448 6.25448C19.3043 5.91399 18.7942 5.74312 18.3394 5.62627C17.8539 5.51195 17.3485 5.51195 16.8631 5.62627C15.9993 5.83622 15.2072 6.27299 14.5686 6.89144C13.9301 7.5099 13.4682 8.28762 13.2307 9.14427L13.5712 9.31514L15.2737 7.7823L15.3315 7.84386ZM21.4051 16.7532C21.1384 17.4204 20.7555 18.0351 20.2743 18.5687C20.0481 18.7961 19.8207 19.0801 19.4802 19.3075L18.6284 19.9357C17.3729 20.6066 16.0081 21.0487 14.5977 21.2411C13.1831 21.4585 11.7408 21.4202 10.3397 21.1281C9.65195 20.9571 8.98561 20.7093 8.3533 20.3893C7.67231 20.1053 7.10441 19.6518 6.47996 19.1969L6.30909 19.3678C7.21829 20.6816 8.53507 21.6593 10.0558 22.1495C11.5832 22.7058 13.2318 22.8429 14.8302 22.5466C16.4292 22.3371 17.951 21.7326 19.2578 20.7876C20.5607 19.7921 21.4185 18.3231 21.645 16.6992H21.4051V16.7532ZM13.3438 12.4926L13.8552 17.2042L14.1391 17.1477L13.5712 12.4926H13.3438Z" fill="black"/>
</svg>
