<svg width="348" height="143" viewBox="0 0 348 143" fill="none" xmlns="http://www.w3.org/2000/svg">
<g clip-path="url(#clip0_162_174)">
<path d="M348 27.3437H326.331C326.331 47.2972 310.033 63.5556 290.031 63.5556C270.029 63.5556 253.73 47.2972 253.73 27.3437H232.062C232.062 59.3062 257.99 85.1719 290.031 85.1719C322.071 85.1719 348 59.3062 348 27.3437Z" fill="white"/>
<path d="M290.031 85.1719C257.99 85.1719 232.062 111.038 232.062 143H253.73C253.73 123.047 270.029 106.788 290.031 106.788C310.033 106.788 326.331 123.047 326.331 143H348C348 111.038 322.071 85.1719 290.031 85.1719Z" fill="white"/>
<path d="M115.938 85.1719V143H94.2693V85.1719C94.2693 65.2184 77.9713 48.96 57.9691 48.96C37.967 48.96 21.669 65.2184 21.669 85.1719V143H0V85.1719C0 66.8812 8.51943 50.6228 21.669 40.0918C31.67 32.1473 44.264 27.3437 57.9691 27.3437C71.6743 27.3437 84.2682 32.1473 94.2693 40.0918C107.604 50.6228 115.938 66.8812 115.938 85.1719Z" fill="white"/>
<path d="M180.945 27.3437C148.904 27.3437 122.976 53.2093 122.976 85.1719C122.976 117.134 148.904 143 180.945 143C212.985 143 238.914 117.134 238.914 85.1719C238.914 53.2093 212.985 27.3437 180.945 27.3437ZM180.945 121.384C160.943 121.384 144.645 105.125 144.645 85.1719C144.645 65.2184 160.943 48.96 180.945 48.96C200.947 48.96 217.245 65.2184 217.245 85.1719C217.245 105.125 200.947 121.384 180.945 121.384Z" fill="white"/>
<path d="M144.835 -0.0496902V20.8276L217.25 20.8276V-0.0496902L144.835 -0.0496902Z" fill="white"/>
</g>
<defs>
<clipPath id="clip0_162_174">
<rect width="348" height="143" fill="white"/>
</clipPath>
</defs>
</svg>
