<svg width="276" height="93" viewBox="0 0 276 93" fill="none" xmlns="http://www.w3.org/2000/svg">
<g clip-path="url(#clip0_162_137)">
<path d="M46.3 92.1C71.5946 92.1 92.1 71.5946 92.1 46.3C92.1 21.0054 71.5946 0.5 46.3 0.5C21.0054 0.5 0.5 21.0054 0.5 46.3C0.5 71.5946 21.0054 92.1 46.3 92.1Z" stroke="white" stroke-miterlimit="10"/>
<path d="M46.3002 74.9C62.0955 74.9 74.9002 62.0953 74.9002 46.2999C74.9002 30.5046 62.0955 17.7 46.3002 17.7C30.5049 17.7 17.7002 30.5046 17.7002 46.2999C17.7002 62.0953 30.5049 74.9 46.3002 74.9Z" stroke="white" stroke-miterlimit="10"/>
<path d="M138 92.1C163.295 92.1 183.8 71.5946 183.8 46.3C183.8 21.0054 163.295 0.5 138 0.5C112.706 0.5 92.2002 21.0054 92.2002 46.3C92.2002 71.5946 112.706 92.1 138 92.1Z" stroke="white" stroke-miterlimit="10"/>
<path d="M138 74.9C153.796 74.9 166.6 62.0953 166.6 46.2999C166.6 30.5046 153.796 17.7 138 17.7C122.205 17.7 109.4 30.5046 109.4 46.2999C109.4 62.0953 122.205 74.9 138 74.9Z" stroke="white" stroke-miterlimit="10"/>
<path d="M229.6 92.1C254.894 92.1 275.4 71.5946 275.4 46.3C275.4 21.0054 254.894 0.5 229.6 0.5C204.305 0.5 183.8 21.0054 183.8 46.3C183.8 71.5946 204.305 92.1 229.6 92.1Z" stroke="white" stroke-miterlimit="10"/>
<path d="M229.6 74.9C245.395 74.9 258.2 62.0953 258.2 46.2999C258.2 30.5046 245.395 17.7 229.6 17.7C213.805 17.7 201 30.5046 201 46.2999C201 62.0953 213.805 74.9 229.6 74.9Z" stroke="white" stroke-miterlimit="10"/>
</g>
<defs>
<clipPath id="clip0_162_137">
<rect width="275.9" height="92.6" fill="white"/>
</clipPath>
</defs>
</svg>
