<svg width="316" height="185" viewBox="0 0 316 185" fill="none" xmlns="http://www.w3.org/2000/svg">
<g clip-path="url(#clip0_162_158)">
<path d="M46.3 137.9C71.5946 137.9 92.1 117.395 92.1 92.1C92.1 66.8054 71.5946 46.3 46.3 46.3C21.0054 46.3 0.5 66.8054 0.5 92.1C0.5 117.395 21.0054 137.9 46.3 137.9Z" stroke="white" stroke-miterlimit="10"/>
<path d="M46.3002 120.7C62.0955 120.7 74.9002 107.895 74.9002 92.1C74.9002 76.3047 62.0955 63.5 46.3002 63.5C30.5049 63.5 17.7002 76.3047 17.7002 92.1C17.7002 107.895 30.5049 120.7 46.3002 120.7Z" stroke="white" stroke-miterlimit="10"/>
<path d="M138 137.9C163.295 137.9 183.8 117.395 183.8 92.1C183.8 66.8054 163.295 46.3 138 46.3C112.706 46.3 92.2002 66.8054 92.2002 92.1C92.2002 117.395 112.706 137.9 138 137.9Z" stroke="white" stroke-miterlimit="10"/>
<path d="M138 120.7C153.796 120.7 166.6 107.895 166.6 92.1C166.6 76.3047 153.796 63.5 138 63.5C122.205 63.5 109.4 76.3047 109.4 92.1C109.4 107.895 122.205 120.7 138 120.7Z" stroke="white" stroke-miterlimit="10"/>
<path d="M229.6 183.8C254.894 183.8 275.4 163.295 275.4 138C275.4 112.705 254.894 92.2 229.6 92.2C204.305 92.2 183.8 112.705 183.8 138C183.8 163.295 204.305 183.8 229.6 183.8Z" stroke="white" stroke-miterlimit="10"/>
<path d="M229.6 166.6C245.395 166.6 258.2 153.795 258.2 138C258.2 122.205 245.395 109.4 229.6 109.4C213.805 109.4 201 122.205 201 138C201 153.795 213.805 166.6 229.6 166.6Z" stroke="white" stroke-miterlimit="10"/>
<path d="M229.6 92.1C254.894 92.1 275.4 71.5946 275.4 46.3C275.4 21.0054 254.894 0.5 229.6 0.5C204.305 0.5 183.8 21.0054 183.8 46.3C183.8 71.5946 204.305 92.1 229.6 92.1Z" stroke="white" stroke-miterlimit="10"/>
<path d="M229.6 74.9C245.395 74.9 258.2 62.0953 258.2 46.2999C258.2 30.5046 245.395 17.7 229.6 17.7C213.805 17.7 201 30.5046 201 46.2999C201 62.0953 213.805 74.9 229.6 74.9Z" stroke="white" stroke-miterlimit="10"/>
<path d="M0.5 46.3H315.5" stroke="white" stroke-miterlimit="10"/>
<path d="M0.5 138H315.5" stroke="white" stroke-miterlimit="10"/>
<path d="M92.0996 46.3V138" stroke="white" stroke-miterlimit="10"/>
<path d="M75 46.3V138" stroke="white" stroke-miterlimit="10"/>
<path d="M0.5 46.3V138" stroke="white" stroke-miterlimit="10"/>
<path d="M17.7002 46.3V138" stroke="white" stroke-miterlimit="10"/>
</g>
<defs>
<clipPath id="clip0_162_158">
<rect width="315.5" height="184.3" fill="white"/>
</clipPath>
</defs>
</svg>
