<svg width="162" height="45" viewBox="0 0 162 45" fill="none" xmlns="http://www.w3.org/2000/svg">
<g clip-path="url(#clip0_38_787)">
<path d="M23.018 0.505615C19.4243 0.50701 15.8849 1.3818 12.7044 3.05466C9.52389 4.72753 6.79762 7.14834 4.76032 10.1087C2.72303 13.069 1.43575 16.4801 1.00933 20.0483C0.582907 23.6166 1.03012 27.235 2.31246 30.592C3.5948 33.949 5.67384 36.9441 8.37058 39.3193C11.0673 41.6946 14.3009 43.3788 17.793 44.2269C21.2851 45.0751 24.931 45.0618 28.4169 44.1882C31.9027 43.3147 35.1239 41.607 37.8033 39.2122C35.175 40.9758 32.0823 41.9198 28.9171 41.9246C23.6337 41.9246 18.9077 39.3037 15.7293 35.1684C13.2748 32.2813 11.6856 28.0046 11.5774 23.2037V22.1553C11.6856 17.3544 13.2748 13.0778 15.721 10.1823C18.9077 6.05533 23.6337 3.44272 28.9171 3.44272C32.1621 3.44272 35.2073 4.42453 37.8033 6.15517C33.8927 2.6606 28.7507 0.530576 23.1095 0.505615H23.0263H23.018Z" fill="url(#paint0_linear_38_787)"/>
<path d="M15.7211 10.1822C17.7596 7.7859 20.3805 6.33815 23.2594 6.33815C29.716 6.33815 34.9495 13.6601 34.9495 22.6794C34.9495 31.7071 29.716 39.0207 23.2594 39.0207C20.3888 39.0207 17.7679 37.573 15.7294 35.1767C18.9078 39.3036 23.6338 41.9245 28.9172 41.9245C32.1622 41.9245 35.2075 40.9344 37.8034 39.2121C40.1325 37.1338 41.9956 34.5864 43.2705 31.737C44.5453 28.8877 45.2029 25.8009 45.2003 22.6794C45.2003 16.1063 42.3464 10.2071 37.8118 6.14678C35.1838 4.38222 32.0909 3.43814 28.9256 3.43433C23.6421 3.43433 18.9161 6.05525 15.7377 10.1905" fill="url(#paint1_linear_38_787)"/>
<path d="M68.6719 4.54095C60.6177 4.54095 54.0696 11.4053 54.0696 19.8505C54.0696 28.2874 60.6177 35.1601 68.6719 35.1601C76.7261 35.1601 83.2742 28.2874 83.2742 19.8505C83.2742 11.4053 76.7261 4.54095 68.6719 4.54095ZM68.6719 6.83739C75.4613 6.82907 80.9778 12.67 80.9778 19.8505C80.9778 27.0227 75.4613 32.8553 68.6719 32.8553C61.8908 32.8553 56.366 27.0227 56.366 19.8505C56.366 12.67 61.8824 6.83739 68.6719 6.83739ZM95.5135 12.6201C92.4849 12.6201 89.8806 14.0512 88.1084 16.306V13.1276H85.6955V40.8179H88.1084V30.8917C88.9748 32.0356 90.0941 32.9636 91.3787 33.603C92.6634 34.2425 94.0785 34.576 95.5135 34.5776C101.13 34.5776 105.706 29.6519 105.706 23.5947C105.706 17.5458 101.13 12.6201 95.5135 12.6201ZM151.269 12.6201C145.652 12.6201 141.076 17.5458 141.076 23.603C141.076 29.6519 145.652 34.5859 151.269 34.5859C154.297 34.5859 156.902 33.1465 158.674 30.8917V34.0035H161.087V13.1193H158.674V16.3143C157.808 15.1699 156.689 14.2416 155.404 13.6021C154.119 12.9626 152.704 12.6293 151.269 12.6284V12.6201ZM118.07 12.6617C112.437 12.6617 107.869 17.579 107.869 23.6363C107.869 29.6852 112.446 34.6026 118.062 34.6026C122.081 34.6026 125.575 32.0898 127.231 28.4372L125.151 27.2224C123.919 30.1678 121.207 32.2146 118.07 32.2146C113.993 32.2146 110.64 28.7783 110.291 24.3934H128.238C128.254 24.1438 128.263 23.8942 128.263 23.628C128.263 17.163 124.069 12.645 118.07 12.645L118.054 12.6617H118.07ZM139.42 12.7116C138.588 12.7449 137.806 12.9612 137.074 13.3606C135.578 14.1581 134.412 15.4573 133.779 17.0299C133.771 17.0715 133.746 17.1131 133.729 17.1381H133.704V13.2607H131.291V34.0202H133.704V33.8704V23.1371C133.677 21.7685 133.932 20.4091 134.453 19.1433C134.889 18.0254 135.585 17.0272 136.483 16.2311C136.988 15.7698 137.591 15.4302 138.248 15.2384C138.904 15.0466 139.595 15.0076 140.269 15.1245L140.976 15.2576C141.109 14.567 141.442 13.6934 141.584 13.0028C140.918 12.8114 140.036 12.7033 139.412 12.7282L139.42 12.7116ZM95.5052 15.008C99.8152 15.008 103.318 18.8687 103.318 23.603C103.318 28.3456 99.8069 32.1897 95.4969 32.1897C91.1869 32.1897 87.6923 28.3373 87.6923 23.603C87.6923 18.8604 91.1952 15.008 95.5052 15.008ZM151.269 15.008C155.579 15.008 159.081 18.8687 159.081 23.603C159.081 28.3456 155.57 32.1897 151.26 32.1897C146.95 32.1897 143.447 28.3373 143.447 23.603C143.447 18.8604 146.959 15.008 151.269 15.008ZM118.054 15.0413C122.314 15.0413 125.292 17.9118 125.791 22.305H110.341C110.923 18.2031 114.16 15.0413 118.054 15.0413Z" fill="white"/>
</g>
<defs>
<linearGradient id="paint0_linear_38_787" x1="19.3237" y1="1.22949" x2="19.3237" y2="44.2044" gradientUnits="userSpaceOnUse">
<stop stop-color="#FF1B2D"/>
<stop offset="0.3" stop-color="#FF1B2D"/>
<stop offset="0.6" stop-color="#FF1B2D"/>
<stop offset="1" stop-color="#A70014"/>
</linearGradient>
<linearGradient id="paint1_linear_38_787" x1="30.4648" y1="3.75882" x2="30.4648" y2="41.7748" gradientUnits="userSpaceOnUse">
<stop stop-color="#9C0000"/>
<stop offset="0.7" stop-color="#FF4B4B"/>
<stop offset="1" stop-color="#FF4B4B"/>
</linearGradient>
<clipPath id="clip0_38_787">
<rect width="160.251" height="44.3478" fill="white" transform="translate(0.852051 0.505615)"/>
</clipPath>
</defs>
</svg>
