<svg width="97" height="80" viewBox="0 0 97 80" fill="none" xmlns="http://www.w3.org/2000/svg">
<path d="M78.137 7.39619C56.1888 7.58272 33.7432 -6.77997 12.4168 4.03868C7.06967 6.71225 0.852051 12.6812 0.852051 19.1475V79.3962C18.2614 66.4014 36.7277 63.6035 54.9453 63.4169C62.9039 63.3547 70.8624 62.9195 78.5723 60.6812C84.7899 58.8781 91.7536 55.8314 96.8521 51.9143V2.54645C89.5153 7.70707 87.1526 7.33402 78.137 7.39619Z" fill="white"/>
<path d="M95.2978 5.09569C89.7641 8.51538 86.7174 8.57756 80.0024 8.57756H78.1993C69.9299 8.70191 61.5983 6.71227 53.5154 4.84699C39.4014 1.55165 26.0957 -1.49498 13.1009 5.03352C7.81588 7.70709 2.40656 13.3029 2.40656 18.7744V76.3496L4.58272 74.9195V20.9506C4.58272 15.4169 9.92987 9.82108 15.2148 7.20968C28.2718 0.61901 41.5775 3.72782 55.6294 6.96098C63.7123 8.82626 70.4273 11.3755 78.6345 11.3133C78.6345 11.3133 91.6294 11.7485 95.2978 5.09569Z" fill="white"/>
<path d="M79.6915 57.5723C72.79 59.4998 66.1371 60.7433 53.4532 59.6242C36.8521 58.1941 11.7952 58.6915 2.40656 76.3495C20.7485 64.7226 39.8366 62.4221 54.8211 62.2977C61.9091 62.2356 70.2408 61.8625 78.1993 59.6242C82.6138 58.3806 92.9972 54.8366 95.1734 51.2304C91.505 52.9713 84.4169 56.2045 79.6915 57.5723ZM86.5309 21.2615C84.7278 21.2615 84.106 20.0801 84.106 18.7744C84.106 17.5309 84.7278 16.3495 86.5309 16.3495C88.334 16.3495 88.8936 17.5309 88.8936 18.8366C88.8936 20.0801 88.334 21.2615 86.5309 21.2615ZM86.5309 16.7848C85.0387 16.7848 84.5413 17.6552 84.5413 18.8366C84.5413 19.9558 85.0387 20.8884 86.5309 20.8884C88.0231 20.8884 88.4584 19.9558 88.4584 18.8366C88.4584 17.6552 88.0231 16.7848 86.5309 16.7848ZM87.0283 20.2666L86.4687 19.2097H86.1579V20.2666H85.4117V17.4065H86.6553C87.5257 17.4065 87.7122 17.904 87.7122 18.3392C87.7122 18.7744 87.4635 19.0231 87.0905 19.1475L87.7744 20.2666H87.0283ZM86.5931 18.0283H86.1579V18.7122H86.5931C86.9661 18.7122 86.9661 18.5257 86.9661 18.3392C86.9661 18.1527 86.904 18.0283 86.5931 18.0283ZM72.5413 39.0438C72.8521 38.8573 73.2252 38.7951 73.5983 38.733L74.5931 38.4843C75.7744 37.1786 77.2667 36.1216 78.448 35.935H78.5102C78.6345 35.6863 78.6345 35.4998 78.6345 35.3755L78.5724 35.0646C78.2615 34.8159 77.8884 34.7537 77.3288 34.8159C75.6501 35.1267 73.4117 37.1786 72.2304 38.9817V39.3547L72.5413 39.0438Z" fill="black"/>
<path d="M84.9766 47.6242C84.0439 48.0594 82.8626 47.6863 82.1786 46.9402C81.3082 45.9454 80.5621 44.8262 80.0025 43.6449C79.6294 42.961 79.3185 42.2148 78.8211 41.5931C78.3237 41.0335 77.4533 40.1009 76.645 40.2252C83.1735 39.2304 85.0387 32.0801 79.5672 31.5827C75.8988 31.2097 72.8522 34.1941 71.4843 36.7433V26.5464C71.4843 24.4325 71.2356 19.2097 73.7227 18.3392C76.4584 17.4687 74.9662 21.0128 77.9507 21.1993C79.1942 21.2615 80.3134 20.3288 80.5621 19.2718C80.8729 17.9661 79.8159 16.6604 78.6968 16.0387C75.4636 14.4221 65.8885 18.2148 65.8885 30.6501V44.4532C65.4533 44.9506 65.018 45.3237 64.5206 45.6967C61.9714 47.3755 61.6605 44.6397 61.6605 44.6397V34.7537C61.6605 34.7537 61.5362 32.5154 62.4688 32.1423H58.8626C57.1838 32.1423 57.3082 33.3237 57.3082 33.3237V34.0076C56.7486 32.9506 55.5051 32.2667 54.0128 32.2045C49.5362 32.018 46.8004 36.3081 46.6139 40.2252C46.5517 41.3444 46.6761 42.5257 46.9248 43.6449C46.6761 43.9558 46.4895 44.2667 46.1786 44.5154C44.0025 46.6294 40.8315 47.7485 37.9092 47.0646L37.0387 46.8159C34.6139 45.9454 33.4947 43.3962 33.5569 40.847C33.6191 38.4221 34.9248 35.3133 37.2875 34.4428C37.7849 34.3185 38.2823 34.1941 38.7797 34.2563C39.0284 34.3185 39.3393 34.3806 39.5258 34.5672C39.7745 34.6915 39.961 35.0646 40.0854 35.3133C40.645 36.992 39.5258 41.0335 33.9299 41.904C33.9299 41.904 35.4843 43.5827 39.0906 42.6501C40.4584 42.277 41.702 41.7796 42.759 40.7226C43.3807 40.0387 43.8159 39.2926 44.1268 38.3599C44.3755 37.4895 44.3755 36.4325 44.1268 35.4998C43.8159 34.3806 43.0077 33.3858 42.075 32.8262C41.2046 32.3288 40.2719 32.0801 39.2771 31.8936C35.1735 31.2718 29.3289 34.0698 28.9558 40.4739C28.645 46.4428 32.5621 50.049 38.6553 50.049C42.8833 50.049 45.6812 47.4998 47.4222 45.3237C48.1683 47.3755 49.5983 49.0542 51.7123 49.5516C55.8781 50.6086 57.3704 46.0076 57.3704 46.0076C57.3704 46.0076 57.3082 48.0594 58.3652 49.0542C59.2356 49.8625 60.417 49.8003 61.474 49.4895C63.0906 48.9299 64.5828 47.7485 65.8885 46.3806V47.6242C65.8885 47.6242 65.9507 48.7433 65.018 49.6138H70.1786C70.1786 49.6138 71.4843 49.5516 71.4843 47.9351V38.7952C73.0387 36.3703 76.7693 33.0749 78.759 34.6294C78.759 34.6294 79.5672 35.3755 78.4481 36.8055C78.0128 37.2407 77.5154 37.676 77.018 37.9869C76.2719 38.4221 75.5258 38.733 74.7175 39.0439L73.5983 39.2926C73.2253 39.3547 72.9144 39.4169 72.6657 39.6034C72.4792 39.7278 72.2926 39.8521 72.2305 40.0387C72.0439 40.2874 71.9818 40.5983 71.9196 40.9091C71.9196 40.9091 72.417 40.6604 73.1009 40.7848C74.0336 40.9713 74.531 41.5931 74.904 42.4014L76.0854 44.9506L77.018 46.6915C77.8263 48.1838 79.0698 49.4895 80.8108 49.7382C82.1786 49.9247 83.5465 49.7382 84.5413 48.6812C84.79 48.3703 84.9766 47.9972 84.9766 47.6242ZM57.3082 40.7848C57.3082 46.9402 54.1372 46.3806 54.1372 46.3806C52.3963 46.3806 50.5932 43.6449 50.5932 40.5361C50.5932 37.3651 52.1476 34.9402 54.1372 34.8159C55.5672 34.6915 57.1838 35.8729 57.3082 37.9869V40.7848Z" fill="black"/>
<path d="M43.8782 17.3444C42.8834 13.4894 39.215 10.5672 35.6088 9.1371C32.2844 7.85224 28.6703 7.50805 25.1632 8.14228C20.1291 9.04786 15.5131 11.53 11.9818 15.2304C11.1735 16.1008 10.4274 17.2822 9.86782 18.4013C8.31342 21.6345 8.93518 25.9868 12.3549 27.7278C12.9766 28.0387 13.7849 28.163 14.4689 28.163C17.2668 28.2874 20.3756 25.8625 19.1321 22.8159C17.6398 25.1164 15.588 24.1216 15.588 24.1216C14.0336 23.3754 13.7227 21.5723 14.158 20.0801C14.5932 18.3392 15.7124 16.7848 16.9559 15.5412C19.7538 12.8677 23.4844 11.3754 27.2772 10.9402C31.1321 10.505 35.5466 11.8729 37.7227 15.3547C39.4637 18.2148 38.9663 21.821 36.9145 24.3703C34.8005 26.9195 30.2616 27.2304 28.272 24.2459C27.5927 23.289 27.2834 22.1182 27.4015 20.9506C27.6502 19.1475 28.8316 17.4687 30.759 17.2822C30.5725 16.7848 30.1373 15.7278 27.8367 16.1008C27.8367 16.1008 20.7487 17.22 20.7487 27.4169V40.2252C20.7487 42.3392 20.9974 47.4376 18.4481 48.3081C15.7746 49.2407 17.2668 45.5723 14.2202 45.448C12.9766 45.3858 11.9196 46.2563 11.6709 47.3754C11.3601 48.7433 12.3549 49.9868 13.5362 50.6086C16.7072 52.2252 26.6554 49.1164 26.6554 41.0956V27.106C29.329 29.6552 33.0595 30.277 36.5414 29.2822C37.474 29.0335 38.3445 28.5361 39.1528 28.1008C41.7642 26.5464 43.5673 23.8729 44.0647 20.9506C44.2512 19.7692 44.1269 18.4635 43.8782 17.3444Z" fill="black"/>
<path d="M81.4947 19.3962C81.3769 19.9114 81.1413 20.3923 80.8063 20.8011C80.4714 21.2099 80.0463 21.5356 79.5643 21.7524C79.0824 21.9693 78.5567 22.0715 78.0286 22.0511C77.5005 22.0306 76.9843 21.888 76.5206 21.6345C76.8936 22.3184 77.6397 23.0024 79.0698 23.1267C80.6864 23.1889 82.1786 22.0697 82.5517 20.5153C82.9247 18.8988 81.9921 17.5309 80.8107 16.6604C81.3703 17.4687 81.6812 18.4013 81.4947 19.3962ZM53.7019 45.3236C53.0802 44.391 52.5828 43.0853 52.5828 41.5931C52.5828 38.733 54.0128 36.8677 55.3185 36.7433C55.6294 36.6811 55.9403 36.8055 56.2511 36.9298C56.0646 36.619 55.8781 36.3081 55.6294 36.1216C55.2563 35.7485 54.6967 35.562 54.2615 35.6241C52.8936 35.6863 51.5258 37.6138 51.5258 40.4739C51.5258 42.8366 52.6449 44.764 53.7019 45.3236ZM63.7745 34.0076V45.0749C63.4014 45.2614 63.1527 45.3236 63.0284 45.2614C62.8418 45.1371 62.6553 44.7019 62.6553 44.391V33.8832C62.6553 33.8832 62.6553 32.3288 63.4636 32.1423H64.6449C64.6449 32.1423 63.7745 32.5775 63.7745 34.0076ZM73.5361 32.8262V27.5412V26.2977C73.5361 24.2459 73.6605 20.764 75.2149 20.2045H75.2771L75.0284 19.6449C74.7175 18.8988 74.7175 18.8988 74.0957 19.1475C72.5413 19.6449 72.417 23.1267 72.417 25.1785V33.9454L73.5361 32.8262ZM83.733 34.3806V34.505C83.733 36.7433 81.9299 39.106 79.0076 40.3495L79.5672 40.9713L80.8729 43.1475C81.4325 44.391 82.1164 45.3858 82.9247 46.2563L83.4221 46.6293C82.9247 45.9454 82.3651 45.1993 81.9299 44.2666L80.6864 42.0905L80.0646 41.4687C83.0491 40.2252 84.8522 37.8003 84.8522 35.6241V35.4998C84.79 34.3806 84.2926 33.2614 83.1734 32.5153C83.5465 33.0749 83.733 33.7589 83.733 34.3806ZM66.2615 51.5412H71.36C72.2926 51.4791 73.5361 50.7329 73.5361 48.9298V42.65H74.1579C73.7848 41.9039 73.4739 41.5931 73.0387 41.5309L72.417 41.5931V47.8107C72.417 49.676 71.1734 50.3599 70.303 50.4221H65.018C65.018 50.4221 65.8263 51.4791 66.2615 51.5412ZM45.8056 40.3495C45.4947 41.0956 45.0594 41.7796 44.562 42.3392C43.3185 43.6449 41.7641 44.1423 40.5206 44.5153C38.4688 45.0127 37.0387 44.764 36.0439 44.391L36.6657 45.5102C35.8574 45.0127 35.2978 44.2045 34.9247 43.2718C35.9195 43.6449 37.3496 43.8936 39.4014 43.3962C40.7071 43.0231 42.1993 42.5257 43.4429 41.2822C44.189 40.5361 44.6864 39.6656 45.0594 38.5464C45.3703 37.4894 45.3703 36.3081 45.0594 35.1889C44.9351 34.5671 44.6242 34.0076 44.2511 33.448C44.8537 33.9067 45.3533 34.4869 45.7174 35.151C46.0816 35.815 46.3023 36.5482 46.3651 37.3029C46.3651 37.2407 46.4895 38.8573 45.8056 40.3495ZM57.8056 49.6138C57.4947 49.2407 57.246 48.8055 57.0594 48.3703C55.9403 49.8003 54.1372 50.9817 51.5879 50.3599C50.7175 50.1112 49.9092 49.676 49.2252 49.1164C50.1579 50.2977 51.3392 51.106 52.7071 51.4169C55.0698 52.0386 56.8107 50.9817 57.9299 49.676L57.8056 49.6138ZM86.6553 47.935C86.4066 47.7485 86.1579 47.7485 85.9092 47.8107C85.7848 48.4324 85.4739 48.9298 85.2874 49.1164C84.2304 50.2977 82.676 50.7329 80.7486 50.4842C79.8159 50.3599 79.0076 49.9868 78.2615 49.4272C79.2563 50.6708 80.4999 51.4169 81.8677 51.6034C83.7952 51.8521 85.3496 51.4169 86.3444 50.2355C86.6553 49.9868 87.0284 49.3651 87.0284 48.6811C87.0284 48.3703 86.904 48.0594 86.6553 47.935ZM64.334 49.8625L64.2719 49.5516C64.2719 49.3029 64.3962 49.0542 64.5206 48.9298L64.7693 48.4946C63.7745 49.2407 62.8418 49.8625 61.847 50.2355C60.5413 50.6708 59.36 50.5464 58.4273 49.9868L58.9247 50.6708C59.9195 51.6034 61.3496 51.8521 62.9662 51.2925C63.5879 51.106 64.2097 50.7329 64.8315 50.3599C64.6449 50.2355 64.3962 50.1112 64.334 49.8625ZM47.2356 46.7537C44.8107 49.4272 41.9506 50.8573 38.7175 50.8573C35.733 50.8573 33.246 50.049 31.4429 48.4946L31.7537 48.8677C33.619 50.8573 36.417 51.9143 39.8366 51.9143C42.9454 51.9143 45.7434 50.5464 48.1061 48.0594L47.2356 46.7537ZM38.7796 36.3081C37.2874 36.8677 36.2926 38.5464 35.8574 40.3495L34.5517 40.7226C34.6138 38.5464 35.7952 35.8728 37.6605 35.1889C38.0335 35.0646 38.4066 35.0024 38.7175 35.0646L39.0284 35.1267C39.0284 35.1267 40.1475 35.8728 38.7796 36.3081ZM27.4636 11.7485C23.5465 12.2459 20.0646 13.8003 17.6398 16.163C16.7071 17.0335 15.5258 18.5257 15.0284 20.2666C14.7796 21.3236 14.904 22.7537 16.0232 23.2511L16.2097 23.3754C16.0232 22.7537 15.961 22.0076 16.1475 21.3236C16.6449 19.5827 17.8263 18.1526 18.7589 17.22C21.1838 14.8573 24.6657 13.3029 28.5828 12.8677C31.132 12.619 34.1786 13.1785 36.417 14.9195C34.2408 12.3081 30.448 11.4376 27.4636 11.7485ZM19.6294 28.3495C19.1511 28.9499 18.5319 29.423 17.8269 29.7267C17.1219 30.0304 16.3528 30.1553 15.5879 30.0905C15.1527 30.0905 14.0957 30.0283 13.1631 29.5931C12.1682 29.0956 11.4221 28.4739 10.8625 27.6656L12.0439 28.4739C12.9765 28.9091 14.0957 29.0335 14.4688 29.0335C16.1475 29.0956 18.1372 28.4117 19.132 26.9817C19.8159 26.049 20.2511 24.5568 19.6916 23.1267C19.6916 23.1267 21.619 25.676 19.6294 28.3495ZM18.1372 47.3754C17.8885 46.878 17.5154 46.3184 16.8936 46.0076L17.3289 46.8158C17.6398 47.562 17.6398 47.562 18.1372 47.3754Z" fill="black"/>
<path d="M45.8678 18.1527C45.3082 15.9143 43.9403 13.9869 42.2616 12.4946C43.3808 13.8003 44.3134 15.2926 44.7486 17.0335C45.3023 19.2803 45.1033 21.6466 44.1823 23.7694C43.2613 25.8922 41.6692 27.6542 39.6502 28.7848C38.9663 29.1578 37.9714 29.7174 36.8523 30.0283C33.5569 30.9609 30.1994 30.5257 27.588 28.847V41.0335C27.588 44.6397 25.7227 47.8107 22.303 49.8625C19.1321 51.79 15.215 52.4117 13.101 51.2926L12.5414 50.9195C12.9766 51.5413 13.5984 52.1008 14.2201 52.4117C16.3341 53.5309 20.2512 52.9091 23.36 50.9817C26.7797 48.9299 28.7072 45.7589 28.7072 42.1527V29.9661C30.5215 31.0873 32.6144 31.676 34.7472 31.665C36.88 31.654 38.9667 31.0438 40.7694 29.904C43.6295 28.163 45.5569 25.3651 46.0543 22.1319C46.2409 20.8884 46.1787 19.4584 45.8678 18.1527ZM30.1372 24.7433C29.5777 23.8729 29.3289 22.9402 29.4533 22.1319C29.5777 20.7641 30.4481 19.334 32.0025 19.1475C32.2512 19.1475 32.4999 19.0231 32.6243 18.7744C32.7486 18.5257 32.8108 18.2148 32.6865 17.9661C32.4378 17.2822 32.0025 16.7848 31.3808 16.5361L31.6295 16.9091C31.7538 17.1578 31.6916 17.4065 31.5673 17.6553C31.4429 17.904 31.1321 18.0283 30.8834 18.0905C29.3289 18.2148 28.5207 19.6449 28.3341 21.0128C28.2831 21.7379 28.4227 22.4637 28.739 23.1181C29.0553 23.7726 29.5373 24.3329 30.1372 24.7433Z" fill="black"/>
<path d="M52.5828 46.2563C51.2149 45.1993 50.1579 42.961 50.1579 40.5361C50.1579 37.1786 51.8367 34.5672 54.1372 34.3807C54.6346 34.3185 55.2563 34.4429 55.7538 34.6916C55.132 34.2563 54.3859 34.0076 53.6398 34.0698C51.4014 34.2563 49.6605 36.8677 49.6605 40.2252C49.6605 42.961 50.9662 45.3859 52.5828 46.2563ZM60.79 44.3289V34.4429V34.132C60.79 33.7589 60.8522 33.1371 61.0387 32.5776H61.6605C61.3496 33.2615 61.2874 34.0076 61.2874 34.4429V44.6397C61.2874 44.6397 61.4118 45.9454 62.2201 46.3185C62.2201 46.3185 60.79 46.505 60.79 44.3289ZM39.588 34.132C38.7797 33.6967 37.7848 33.8211 37.2253 34.0698C34.676 34.9403 33.246 38.2356 33.1838 40.847C33.1216 42.8988 33.8056 45.3237 35.733 46.5672C33.4325 45.3859 32.6864 42.7745 32.6864 40.5983C32.8108 37.9247 34.2408 34.6916 36.7279 33.7589C37.3496 33.5724 37.9092 33.448 38.4066 33.5724C38.4066 33.5102 39.0284 33.6346 39.588 34.132ZM79.6916 18.8988C79.4429 19.7071 78.6346 20.5776 77.5154 20.5154L76.8937 20.391C77.1424 20.5776 77.4532 20.7641 78.0128 20.7641C79.0698 20.8263 79.9403 20.018 80.1268 19.2097C80.3755 18.0905 79.5051 16.9713 78.5102 16.4739C79.2563 17.0335 79.8781 17.9662 79.6916 18.8988ZM76.5828 39.79C80.2512 39.2304 82.4273 36.619 82.3652 34.505C82.3652 33.5102 81.8677 32.8263 80.9973 32.391C81.5569 32.8263 81.8677 33.448 81.9299 34.1941C81.9299 36.3081 79.7538 38.9817 76.0854 39.4791C76.0854 39.4791 75.6501 39.79 76.5828 39.79ZM70.6139 37.2408V25.676C70.6139 23.189 70.5517 18.5258 73.1631 17.6553C74.0957 17.3444 74.6553 17.5309 75.0284 17.904C74.7175 17.7796 74.2823 17.7796 73.6605 17.9662C70.9869 18.8366 71.0491 23.4998 71.1113 25.9869V36.619L70.6139 37.2408ZM82.303 47.6242L81.9299 47.2511C81.0595 46.3185 80.2512 45.1371 79.6294 43.8314L78.5102 41.904C78.1372 41.4688 77.6398 40.9713 77.1424 40.7226L78.0128 41.5931L79.132 43.5827C79.7538 44.8884 80.562 46.0076 81.3703 46.9403C81.6812 47.2511 81.9921 47.4377 82.303 47.6242ZM56.4999 33.8833C56.562 34.0698 56.7486 34.132 56.9351 34.132C56.6242 33.6346 56.189 33.2615 55.6294 33.0128C56.0025 33.2615 56.3133 33.5724 56.4999 33.8833ZM71.4843 37.1786L70.676 38.2356L70.6139 38.4221V47.562C70.6139 48.7434 69.8677 48.8677 69.7434 48.8677H66.0128L65.8885 49.1786H70.2408C70.3652 49.1786 71.1113 49.0542 71.1113 47.8729V38.733L71.1734 38.4843C72.2926 36.8055 74.8418 34.1941 77.0802 33.8211C77.6398 33.6967 78.1994 33.7589 78.6346 33.9454C78.075 33.5102 77.3911 33.3859 76.5828 33.5102C75.2149 33.7589 73.7227 34.8159 72.5413 35.9973L71.4843 37.1786Z" fill="black"/>
<path d="M43.3184 35.3133C43.5671 36.246 43.5049 37.1786 43.2562 37.9247C43.0075 38.7952 42.5723 39.5413 42.0127 40.1009C40.9557 41.1579 39.65 41.5931 38.5308 41.904C37.1008 42.277 35.9816 42.2149 35.2355 42.0283L35.049 42.0905C35.7951 42.4014 37.0386 42.7123 39.0282 42.2149C40.1474 41.904 41.4531 41.4688 42.4479 40.4118C43.0697 39.8522 43.4427 39.1061 43.7536 38.2356C44.0023 37.4895 44.0023 36.4947 43.7536 35.6242C43.5049 34.6915 42.7588 33.7589 41.9505 33.2615L41.7018 33.1371C42.4479 33.6967 43.0697 34.505 43.3184 35.3133ZM80.3754 48.9921L79.4427 48.6812C79.878 48.9921 80.3754 49.1786 80.8728 49.2408C82.4272 49.4895 83.4842 49.1786 84.2303 48.3703L84.2925 48.246L83.6085 48.1838C82.8624 48.8677 81.8054 49.1786 80.3754 48.9921ZM47.422 44.8263C47.3598 44.7019 47.1733 44.5776 47.049 44.5776L46.6137 44.7019L46.5515 44.8263C44.1888 47.8107 41.3909 49.3029 38.2199 49.3029C36.1059 49.3029 34.2407 48.8677 32.8106 47.9972C34.365 49.0542 36.3546 49.6138 38.7173 49.6138C41.8883 49.6138 44.7484 48.0594 47.1111 45.0128L47.422 44.8884V44.8263ZM65.8262 45.9454C65.8262 45.8211 65.7018 45.6967 65.6396 45.6967C65.4531 45.6346 65.2666 45.6346 65.1422 45.8211C63.7743 47.2511 62.3443 48.246 60.9142 48.7434C60.4168 48.9299 59.6085 49.1164 58.8624 48.8055C59.6707 49.4895 60.7899 49.2408 61.4116 49.0542C62.8417 48.5568 64.2096 47.562 65.6396 46.0698L65.8262 45.9454ZM57.308 45.5724C57.1837 45.6346 57.0593 45.6967 56.9971 45.8833C56.8728 46.2563 55.4427 49.9869 51.8365 49.1164C51.2148 48.9921 50.7173 48.7434 50.2199 48.3703C50.593 48.5568 50.966 48.7434 51.4013 48.8055C54.5101 49.6138 56.0023 46.8159 56.3754 45.8211C56.4375 45.8211 56.8106 45.0128 57.308 45.5724ZM26.7795 10.2563C22.5515 10.7537 18.821 12.4325 16.2096 14.9817C14.7173 16.4739 13.7225 18.0905 13.2251 19.7071C12.7899 21.3237 13.1629 23.4377 14.9039 24.3081V24.246H14.8417C13.5982 23.2511 13.3495 21.448 13.7225 20.018C14.1578 18.4014 15.2148 16.7848 16.707 15.2926C19.3184 12.7434 23.0489 11.0646 27.2769 10.5672C29.5774 10.3185 32.251 10.6915 34.5515 11.8729C32.1888 10.4428 29.2666 10.0076 26.7795 10.2563ZM30.137 17.0335C28.2717 17.5309 27.2148 19.2719 27.0282 20.9506L26.966 21.5102C26.9944 22.4005 27.2348 23.2711 27.6674 24.0497C28.1 24.8284 28.7122 25.4925 29.4531 25.9869C28.6448 25.6138 27.9609 25.0542 27.4635 24.246C26.8419 23.3491 26.4961 22.2901 26.4686 21.1993L26.5308 20.7019C26.7173 19.0232 27.9609 17.1579 29.8883 16.6605C29.8883 16.6605 30.3857 16.9092 30.137 17.0335ZM43.4427 17.4687C42.7588 14.4843 40.2717 12.1216 37.6603 10.6294C40.0852 12.1216 42.3236 14.3599 43.0075 17.1579C43.2562 18.277 43.3184 19.5206 43.194 20.5776C42.7588 23.4377 41.0179 25.9247 38.4686 27.4791C37.0085 28.4158 35.3312 28.9595 33.5991 29.0576C31.8671 29.1556 30.1392 28.8046 28.5826 28.0387C30.821 29.3444 33.6189 29.7175 36.479 28.847C37.4738 28.5983 38.3443 28.1009 38.966 27.7278C41.5153 26.2356 43.194 23.7485 43.6293 20.8884C43.8158 19.8314 43.7536 18.5257 43.4427 17.4687ZM26.5308 26.5465C26.4065 26.4221 26.2199 26.3599 26.0334 26.4843C25.8469 26.5465 25.7847 26.6708 25.7847 26.8574V40.847C25.7847 45.075 22.8624 47.4998 21.0593 48.5568C18.137 50.3599 14.7173 50.6708 13.2873 49.9869L13.7225 50.2356C15.1526 50.9817 18.5723 50.6708 21.6189 48.8055C23.3598 47.8107 26.2821 45.3859 26.2821 41.1579V27.1682C26.2821 26.9817 26.3443 26.8574 26.5308 26.733H26.7173L26.5308 26.5465ZM14.5308 27.79C16.023 27.8522 17.6396 27.0439 18.4479 25.9247C18.7588 25.4895 19.0075 24.9299 19.0075 24.1838L18.9453 23.8107L18.5101 24.1838C18.4479 24.7434 18.1992 25.2408 17.9505 25.6138C17.4971 26.2226 16.9055 26.7149 16.2244 27.05C15.5434 27.3852 14.7924 27.5535 14.0334 27.5413C13.2873 27.4791 12.6034 27.3548 12.1059 27.1061L11.8572 26.9195L12.6034 27.4169C13.1008 27.6035 13.7847 27.7278 14.5308 27.79Z" fill="black"/>
<path d="M15.588 47.1267C15.7745 47.6863 16.0854 48.3081 16.7072 48.4946C16.3963 48.2459 16.2098 47.8107 16.0854 47.4376C15.7745 46.8159 15.5258 46.2563 14.9041 46.0076C15.2149 46.3184 15.4015 46.6915 15.588 47.1267Z" fill="black"/>
</svg>
