<svg width="245" height="49" viewBox="0 0 245 49" fill="none" xmlns="http://www.w3.org/2000/svg">
<g clip-path="url(#clip0_38_791)">
<path d="M19.5029 23.9426V19.366H4.87792C4.24182 19.3759 3.61398 19.5118 3.0307 19.7658C2.44742 20.0198 1.92028 20.3869 1.47973 20.8459C0.519302 21.8918 -0.00943658 23.2626 -0.000123164 24.6826C0.105706 25.9392 0.681966 27.1097 1.61344 27.9599C2.54492 28.8101 3.76298 29.2773 5.02408 29.2683H19.5029V43.8933C19.5029 46.7068 22.015 48.9175 24.6824 48.7713C25.9375 48.6633 27.1057 48.0861 27.954 47.1549C28.8022 46.2236 29.2683 45.0068 29.259 43.7471V29.2683H24.6824C23.2901 29.2466 21.9631 28.6739 20.9923 27.6757C20.0214 26.6774 19.4858 25.335 19.5029 23.9426Z" fill="white"/>
<path d="M48.6158 23.9426C48.5078 22.6875 47.9306 21.5193 46.9994 20.6711C46.0681 19.8228 44.8513 19.3568 43.5916 19.366H29.1036V4.88716C29.1036 2.0736 26.5915 -0.137049 23.9333 0.0091096C22.6814 0.119162 21.5168 0.696014 20.6706 1.6251C19.8245 2.55419 19.3587 3.76754 19.3658 5.02418V19.503H23.9333C25.2994 19.5196 26.6049 20.0697 27.5709 21.0357C28.537 22.0018 29.087 23.3073 29.1036 24.6734V29.2591H43.7378C45.0623 29.2591 46.2499 28.6653 47.136 27.7793C47.6289 27.2728 48.0141 26.6717 48.2684 26.0123C48.5228 25.353 48.6409 24.6489 48.6158 23.9426Z" fill="white"/>
<path d="M23.9332 19.5122H19.3657V24.0979C19.3823 25.464 19.9324 26.7695 20.8984 27.7356C21.8645 28.7016 23.17 29.2517 24.5361 29.2683H29.1127V24.6825C29.1289 23.9991 29.0063 23.3195 28.7522 22.6848C28.4982 22.0502 28.1179 21.4737 27.6345 20.9903C27.1511 20.5069 26.5747 20.1267 25.94 19.8726C25.3054 19.6185 24.6257 19.4959 23.9423 19.5122H23.9332Z" fill="white"/>
<path d="M63.5333 14.1957H68.859C71.8095 14.1957 75.6553 14.488 76.8337 17.74C78.1674 21.5767 75.8015 24.984 71.9648 25.5687L78.0121 35.3247H74.9063L69.1513 25.8701H65.8901V35.3247H63.5242V14.1957H63.5333ZM66.0454 23.5042H68.2652C70.485 23.5042 73.8832 23.6503 74.4769 20.9921C75.2077 17.5939 72.1019 16.5616 69.4527 16.5616H65.8992V23.5042H66.0454ZM93.6877 32.8126C91.3217 35.7724 86.7451 36.6493 83.4931 34.5848C80.6887 32.6665 79.8026 28.8298 80.8348 25.7239C82.0224 22.4719 85.2653 20.6997 88.6635 21.1382C92.3631 21.732 94.1353 24.8379 94.1353 28.3822V29.113H82.8993C83.2008 33.8449 89.1111 34.8863 91.9155 31.4881L93.6877 32.8126ZM91.7693 27.0576C91.6232 21.732 83.6393 22.0334 83.0455 27.0576H91.7693ZM97.9719 12.7158H100.347V35.1786H97.9719V12.7158ZM106.394 14.1957C108.614 14.1957 108.614 17.5939 106.394 17.5939C104.175 17.5939 104.175 14.1957 106.394 14.1957ZM105.207 21.2844H107.582V35.1786H105.207V21.2935V21.2844ZM111.866 23.2027C113.94 21.1382 117.63 20.3983 120.289 21.5858C122.508 22.4719 123.248 24.6917 123.248 27.0485V33.105C123.248 33.8449 123.394 34.731 123.394 35.48H121.175C121.028 34.8863 121.028 34.0002 121.028 33.4064C118.663 37.2431 110.688 36.5123 111.272 31.1866C111.72 27.0485 116.89 26.9023 119.996 26.9023H120.882V26.4547C120.882 22.4719 115.411 22.9104 113.346 24.984L111.866 23.2118V23.2027ZM118.663 28.5284C117.338 28.5284 115.411 28.6745 114.378 29.7159C113.492 30.5929 113.647 32.365 114.68 33.105C117.484 35.1786 120.882 32.3742 121.028 29.4145V28.5284H118.663ZM127.523 24.6826C127.523 23.358 127.377 22.3166 127.377 21.4305H129.597V23.8056C130.785 21.2844 134.027 20.6997 136.393 21.4305C138.613 22.3166 139.499 24.5364 139.499 26.7562V35.3247H137.426V26.9023C137.426 24.3902 135.8 22.6089 133.141 23.2118C130.629 23.7965 129.889 26.1624 129.889 28.5284V35.3247H127.523V24.6826ZM153.978 24.8287C153.295 24.0085 152.353 23.445 151.307 23.2309C150.261 23.0167 149.174 23.1646 148.223 23.6503C147.448 24.0979 146.806 24.7447 146.364 25.5236C145.922 26.3026 145.697 27.1854 145.711 28.0808C145.711 29.9991 146.442 31.9266 148.223 32.9588C149.169 33.4696 150.264 33.6306 151.317 33.4134C152.37 33.1962 153.312 32.6147 153.978 31.7713L155.759 33.4064C153.686 35.7724 149.84 36.2108 147.182 34.8863C144.67 33.6987 143.345 31.0405 143.345 28.3822C143.303 27.0265 143.639 25.6859 144.317 24.5111C144.995 23.3362 145.987 22.3738 147.182 21.732C149.995 20.3983 153.686 20.8459 155.906 23.2118L153.987 24.8287H153.978ZM170.969 32.8126C168.603 35.7724 164.027 36.6493 160.775 34.5848C157.97 32.6665 157.075 28.8298 158.116 25.7239C159.304 22.4719 162.547 20.6997 165.945 21.1382C169.645 21.732 171.417 24.8379 171.417 28.3822V29.113H160.181C160.482 33.8449 166.392 34.8863 169.197 31.4881L170.969 32.8126ZM168.905 27.0576C168.749 21.732 160.775 22.0334 160.181 27.0576H168.905Z" fill="white"/>
<path d="M175.408 14.1957H177.92V23.0565H189.147V14.1957H191.659V35.3247H189.147V25.5778H177.911V35.3339H175.408V14.1957ZM196.976 14.1957H200.666L207.764 30.7481L215.008 14.1957H218.698V35.3247H216.186V17.5939L208.65 35.3247H207.17L199.634 17.5939V35.3247H197.131V14.1957H196.985H196.976ZM222.7 24.6825C222.7 20.106 225.349 15.8217 229.788 14.1957C234.219 12.7158 239.398 13.8942 242.349 17.4477C245.162 20.992 245.455 26.3086 243.235 30.3005C240.869 34.4386 235.991 36.2108 231.414 35.4709C226.244 34.7401 222.7 30.0082 222.7 24.6917V24.6825ZM242.056 24.6825C242.056 21.1382 240.138 17.74 236.731 16.4154C235.07 15.7666 233.247 15.6602 231.522 16.1115C229.797 16.5628 228.26 17.5486 227.13 18.9275C222.398 24.984 227.276 34.5848 235.26 33.2602C239.398 32.6665 242.056 28.8207 242.056 24.6825Z" fill="white"/>
</g>
<defs>
<clipPath id="clip0_38_791">
<rect width="244.724" height="48.7805" fill="white"/>
</clipPath>
</defs>
</svg>
