<svg width="186" height="38" viewBox="0 0 186 38" fill="none" xmlns="http://www.w3.org/2000/svg">
<path d="M14.8347 0.654441C11.4074 1.33449 8.26218 2.96068 5.72864 5.36671C4.07288 6.94301 3.04665 8.3031 2.0697 10.1948C0.563009 13.1152 0 15.4707 0 18.8056C0 22.1406 0.563009 24.4967 2.0697 27.4165C3.04665 29.3081 4.07288 30.6682 5.72864 32.2445C9.18862 35.5462 13.4272 37.2223 18.2947 37.2223C21.5397 37.2223 23.9735 36.658 26.6554 35.314C27.9964 34.6339 29.8013 33.4722 29.8013 33.2732C29.8013 33.2067 28.7911 32.1447 27.5665 30.9171L25.3311 28.6774L24.3375 29.225C22.4834 30.2537 21.1424 30.6189 18.9403 30.7015C17.2685 30.768 16.7221 30.7348 15.5462 30.436C10.1323 29.0753 6.45674 24.3803 6.45674 18.8056C6.45674 12.1358 11.7215 6.85986 18.3772 6.85986C27.1353 6.85986 32.8473 15.8526 29.2216 23.9158L28.7578 24.9611L30.9766 27.2009C32.1851 28.4285 33.2612 29.4239 33.3604 29.4239C33.7245 29.4239 35.2145 26.6366 35.8607 24.7283C36.4896 22.8865 36.7545 21.0946 36.7545 18.805C36.7545 15.4701 36.1915 13.1139 34.6848 10.1942C33.7078 8.30249 32.6816 6.9424 31.0258 5.3661C28.4597 2.91079 25.3144 1.30122 21.804 0.63781C20.1821 0.322427 16.4073 0.339058 14.8347 0.654441ZM80.6267 17.727V29.9217H85.0968V5.53241H80.6267V17.727ZM149.732 5.78127C143.557 7.12535 139.152 13.1811 139.898 19.2534C140.278 22.273 141.355 24.4468 143.523 26.6034C145.593 28.6441 147.397 29.6229 150.163 30.1871C153.193 30.8013 156.967 30.0048 159.484 28.2295L159.947 27.8975L160.857 28.7106C162.529 30.1539 162.331 30.1372 163.358 29.0094C164.996 27.2009 164.979 27.3672 163.722 26.2221L162.628 25.2433L163.341 23.9823C166.154 19.0378 165.345 13.231 161.255 9.18273C159.45 7.3742 157.447 6.29562 154.996 5.78127C153.624 5.48252 151.073 5.48252 149.732 5.78127ZM154.616 9.99521C157.928 11.0239 160.427 14.4746 160.427 18.0092C160.427 19.0212 160.029 20.6141 159.55 21.5597L159.185 22.2564L157.546 20.8297L155.907 19.4031L155.179 20.2162C154.765 20.6807 154.218 21.3114 153.953 21.6595L153.473 22.257L155.063 23.6343L156.635 25.011L155.89 25.3929C154.88 25.9073 153.423 26.2726 152.397 26.2726C148.142 26.2726 144.367 22.2902 144.367 17.8274C144.367 16.8486 144.747 15.3222 145.278 14.2436C145.774 13.2316 147.115 11.6719 148.126 10.9752C149.948 9.72972 152.513 9.34843 154.616 9.99521ZM42.5484 7.93783V10.0118H50.1644V29.9217H54.8003V10.0118H62.4163V5.86381H42.5484V7.93783ZM168.373 17.8927V29.9217H185.096V25.9399H172.844V5.86443H168.373V17.8927ZM128.97 9.34843V11.837H126.322V15.4873H128.954L129.004 21.1618L129.053 26.8528L129.501 27.6826C130.461 29.5077 131.901 30.3374 134.103 30.3374C135.378 30.3374 135.627 30.2875 136.636 29.7898C137.265 29.4744 137.811 29.1264 137.861 28.9934C137.911 28.8603 137.779 28.3626 137.58 27.8815C137.365 27.4171 137.1 26.7863 136.984 26.4875L136.769 25.9732L136.14 26.2886C135.412 26.6705 134.749 26.6865 134.12 26.3717C133.259 25.9073 133.209 25.6085 133.143 20.3326L133.093 15.4879H137.249V11.8376H133.11V6.86047H128.97V9.34843ZM68.955 11.4551C67.9288 11.5382 66.3888 11.8204 65.4784 12.1185C64.7663 12.3341 62.7964 13.1306 62.5974 13.2796C62.5143 13.3295 63.9218 16.4815 64.021 16.4815C64.0542 16.4815 64.3518 16.3491 64.6998 16.1661C67.3485 14.8221 70.5935 14.7894 72.0836 16.1162C72.5641 16.5474 73.1763 17.9747 73.1763 18.7046C73.1763 19.2855 73.1431 19.3347 72.8123 19.2356C70.4445 18.5722 67.7132 18.3892 66.0574 18.7878C64.021 19.2855 62.2827 20.6129 61.4714 22.2718C61.0741 23.0682 61.0076 23.4002 61.0076 24.6113C61.0076 25.789 61.0735 26.1709 61.4382 26.9341C62.2993 28.726 63.9384 29.8878 66.1566 30.2691C68.3421 30.651 70.4943 30.1693 72.2493 28.9084L73.1763 28.2449V29.921H77.4808V23.8487C77.4808 17.3944 77.4149 16.6312 76.6203 15.0882C76.1565 14.1759 74.7163 12.7819 73.7393 12.2842C72.4981 11.6707 70.5282 11.3227 68.955 11.4551ZM70.9416 21.7919C71.5871 21.8917 72.3485 22.0408 72.6466 22.1399C73.1763 22.3056 73.1763 22.3223 73.1763 23.3842C73.1763 24.6119 72.9441 25.1761 72.1169 25.8894C70.2627 27.5323 66.7529 27.4657 65.6102 25.7736C64.948 24.8115 65.1464 23.4009 66.0574 22.6543C67.2167 21.7087 68.591 21.4599 70.9416 21.7919ZM95.6105 11.5056C93.574 11.7378 91.7365 12.6175 90.3124 14.0607C89.0539 15.3216 88.3258 16.5825 87.9119 18.2414C86.5044 23.7661 89.5843 28.9761 94.9815 30.1871C97.8459 30.8179 101.736 29.9217 103.823 28.1298L104.502 27.5489L103.21 26.2547L101.935 24.9605L101.505 25.2593C100.826 25.7404 99.485 26.3711 98.6405 26.6034C97.6303 26.8688 95.6105 26.753 94.8491 26.3711C93.4915 25.7243 92.3162 24.2472 91.9515 22.7374L91.8523 22.2896H105.793L105.727 21.6595C105.677 21.3275 105.594 20.531 105.544 19.9175C105.28 16.7649 103.376 13.5464 101.058 12.368C99.6008 11.6214 97.4978 11.2894 95.6105 11.5056ZM98.359 15.2385C99.7665 15.7362 100.743 16.848 101.257 18.5568L101.472 19.3033H96.6872C94.0385 19.3033 91.8862 19.2701 91.8862 19.2368C91.8862 18.9381 92.4659 17.6605 92.8632 17.0963C94.0378 15.3709 96.4383 14.5584 98.359 15.2385ZM116.686 11.5216C115.478 11.7039 114.153 12.3181 113.176 13.1811L112.415 13.8611V11.837H107.946V29.9223H112.398L112.448 23.999C112.498 18.2087 112.515 18.0424 112.862 17.3624C113.558 16.0848 115.015 15.2717 116.637 15.2717C118.127 15.2551 119.22 15.9191 119.915 17.2293C120.263 17.8767 120.279 18.1089 120.329 23.8992L120.379 29.9223H124.668V23.5672C124.668 18.8223 124.602 17.0137 124.436 16.3996C123.524 12.9156 120.411 10.974 116.686 11.5216Z" fill="white"/>
<path d="M18.4059 26.3402C22.5237 26.3402 25.8618 23.0021 25.8618 18.8843C25.8618 14.7666 22.5237 11.4285 18.4059 11.4285C14.2882 11.4285 10.9501 14.7666 10.9501 18.8843C10.9501 23.0021 14.2882 26.3402 18.4059 26.3402Z" fill="white"/>
</svg>
