<svg width="131" height="59" viewBox="0 0 131 59" fill="none" xmlns="http://www.w3.org/2000/svg">
<path d="M2.03702 50.4699L1.08214 55.4353C0.95482 55.8172 0.95482 56.1355 0.95482 56.5175C0.95482 57.5997 1.59141 58.109 2.48263 58.109C3.62849 58.109 4.45605 57.3451 4.77435 55.4353L5.79289 50.4699H6.81143L5.85655 55.4353C5.41094 57.918 4.20142 58.9365 2.41897 58.9365C0.95482 58.9365 -0.0637207 58.1726 -0.0637207 56.4538L-6.1892e-05 55.2443L0.891161 50.4062H2.03702V50.4699ZM8.27558 58.9365L9.03949 54.6714C9.23047 53.9711 9.23047 53.3982 9.35778 52.8889H10.249L10.058 54.0348C10.5673 53.1436 11.3949 52.698 12.2861 52.698C12.9863 52.698 13.7502 53.1436 13.7502 54.3531L13.6866 55.3716L12.9863 58.8092H11.9041L12.5407 55.3716L12.6044 54.5441C12.6044 53.9711 12.3497 53.5255 11.6495 53.5255C10.9493 53.5255 9.86705 54.3531 9.61242 55.8809L9.03949 58.8092H8.27558V58.9365ZM15.9783 58.9365L17.1242 52.8889H18.2064L17.0605 58.9365H15.9783ZM17.3151 51.1702C17.3151 50.8519 17.6971 50.4699 18.0154 50.4699C18.3973 50.4699 18.652 50.7245 18.652 51.1065C18.652 51.5521 18.3973 51.8067 17.9517 51.8067C17.5698 51.8067 17.3151 51.5521 17.3151 51.1702ZM22.6625 51.2975L22.4078 52.8889H23.8083L23.6174 53.6528H22.2169L21.7076 56.5812C21.5803 56.9631 21.5803 57.2177 21.5803 57.5997C21.5803 57.918 21.7713 58.109 22.1532 58.109H22.5988L22.4715 58.9365L21.7076 59.0002C20.8164 59.0002 20.4344 58.4909 20.4344 57.8543L20.4981 56.7085L21.1347 53.6528H20.2434L20.4344 52.8889H21.3256L21.5803 51.5521L22.6625 51.2975ZM29.3466 58.5546C28.901 58.8092 28.1371 59.0002 27.3732 59.0002C25.7818 59.0002 25.0815 57.918 25.0815 56.5812C25.0815 54.7987 26.4183 52.698 28.3281 52.698C29.474 52.698 30.1106 53.3982 30.1106 54.2258C30.1106 55.8172 28.3281 56.2629 26.1 56.1355C26.0364 56.4538 26.1 56.9631 26.2274 57.3451C26.482 57.8543 26.9276 58.109 27.5642 58.109C28.2645 58.109 28.7737 57.8543 29.1557 57.6633L29.3466 58.5546ZM28.1371 53.5255C27.1823 53.5255 26.482 54.4804 26.2274 55.3716C27.8188 55.3716 29.0284 55.1807 29.0284 54.2258C29.0284 53.7802 28.7101 53.5255 28.1371 53.5255ZM38.1316 50.0243L36.7947 56.9631C36.6674 57.5997 36.5401 58.2999 36.5401 58.8092H35.5216L35.7125 57.6633C35.2033 58.5546 34.3757 59.0002 33.6118 59.0002C32.4023 59.0002 31.8293 58.0453 31.8293 56.7721C31.8293 54.6714 33.4208 52.698 35.5216 52.698C35.9035 52.698 36.3491 52.7616 36.6038 52.8889L37.113 50.0243H38.1316ZM36.4128 53.7802C36.2218 53.5892 35.9035 53.5255 35.4579 53.5255C34.0574 53.5255 32.8479 54.9897 32.8479 56.5812C32.8479 57.3451 33.1662 58.109 34.0574 58.109C34.8213 58.109 35.8398 57.2177 36.0945 55.8809L36.4128 53.7802ZM44.3065 50.5972C44.8794 50.4699 45.516 50.4062 46.0889 50.4062C46.9801 50.4062 47.6167 50.5972 48.0623 50.9792C48.4443 51.3611 48.6989 51.8067 48.6989 52.316C48.6989 53.3982 47.8077 54.2258 46.9165 54.4804C47.744 54.735 48.317 55.3716 48.317 56.3265C48.317 57.2177 47.8714 57.8543 47.3621 58.2999C46.7255 58.8092 45.7706 59.0002 44.6248 59.0002L42.8423 58.9365L44.3065 50.5972ZM43.9882 58.0453L44.8794 58.109C46.0889 58.109 47.2984 57.5997 47.2984 56.2629C47.2984 55.2443 46.4709 54.7987 45.516 54.7987H44.6884L43.9882 58.0453ZM44.7521 54.0348H45.5796C46.7255 54.0348 47.744 53.3982 47.744 52.4433C47.744 51.6158 47.1075 51.2975 46.2162 51.2975L45.325 51.3611L44.7521 54.0348ZM54.3009 58.9365L54.4919 57.4087C53.8553 58.6182 52.9641 59.0638 52.1365 59.0638C51.118 59.0638 50.4814 58.1726 50.4814 57.1541C50.4814 54.9897 52.0092 52.8889 54.6192 52.8889C55.1921 52.8889 55.8924 52.9526 56.2743 53.1436L55.6377 56.2629C55.4468 57.3451 55.3831 58.3636 55.3831 59.0002H54.3009V58.9365ZM55.0012 53.5892L54.3009 53.5255C52.7731 53.5255 51.4363 55.117 51.4363 56.7721C51.4363 57.4724 51.6909 58.109 52.5185 58.109C53.4097 58.109 54.3646 56.9631 54.6192 55.3716L55.0012 53.5892ZM57.9295 58.9365L58.757 54.6714L59.0117 52.8889H59.9029L59.7119 54.0348C60.2212 53.1436 61.0487 52.698 61.94 52.698C62.6402 52.698 63.4678 53.1436 63.4678 54.3531L63.3405 55.3716L62.6402 58.8092H61.558L62.1946 55.3716L62.2583 54.5441C62.2583 53.9711 62.0036 53.5255 61.3034 53.5255C60.6031 53.5255 59.5209 54.3531 59.2663 55.8809L58.757 58.8092H57.9295V58.9365ZM65.7595 58.9365L67.4146 50.1516H68.4332L67.351 55.6263C67.5419 55.4353 67.7966 55.1807 67.8602 54.9897L70.0246 52.8889H71.2341L68.6241 55.3716L70.3429 58.9365H69.1971L67.7966 56.0082L66.969 56.7085L66.5234 59.0002H65.7595V58.9365ZM76.0722 58.9365L77.0271 53.6528H76.2632L76.3905 52.8889H77.2181L77.2817 52.507C77.4727 51.6158 77.7273 50.9155 78.3003 50.4062C78.6186 50.0243 79.1915 49.8333 79.7008 49.8333C80.1464 49.8333 80.401 49.9606 80.5283 50.0243L80.21 50.8519C80.0827 50.7245 79.8917 50.7245 79.6371 50.7245C78.8095 50.7245 78.3639 51.5521 78.173 52.507V52.8889H79.5098L79.3188 53.6528H78.0456L77.0271 58.9365H76.0722ZM86.2576 55.2443C86.2576 57.1541 84.9208 59.0638 82.8837 59.0638C81.4196 59.0638 80.592 57.918 80.592 56.5812C80.592 54.6714 81.9925 52.7616 83.9659 52.7616C85.5574 52.698 86.2576 53.9711 86.2576 55.2443ZM81.6742 56.5175C81.6742 57.4724 82.1835 58.1726 83.0747 58.1726C84.3479 58.1726 85.2391 56.5812 85.2391 55.2443C85.2391 54.5441 84.8571 53.5892 83.7749 53.5892C82.5654 53.5255 81.6742 55.117 81.6742 56.5175ZM88.1674 58.9365L88.8676 54.9897C89.0586 54.2258 89.1223 53.3982 89.1859 52.8889H90.0772L89.9498 54.2258C90.2681 53.3982 90.9684 52.7616 91.7959 52.7616H92.0506L91.8596 53.7802H91.605C90.7137 53.7802 89.9498 54.7987 89.6315 56.2629L89.1223 58.9365H88.1674ZM98.3528 56.2629L97.016 58.9365H95.9338L100.326 50.5972H101.536L102.745 58.9365H101.663L101.281 56.2629H98.3528ZM101.217 55.3716L100.835 52.9526C100.772 52.507 100.772 51.8704 100.645 51.4248L99.9443 52.9526L98.7348 55.3716H101.217ZM104.846 58.9365L105.801 53.6528H105.037L105.228 52.8889H105.992L106.119 52.507C106.246 51.6158 106.565 50.9155 107.074 50.4062C107.392 50.0243 107.965 49.8333 108.475 49.8333C108.92 49.8333 109.175 49.9606 109.302 50.0243L109.047 50.8519C108.857 50.7245 108.666 50.7245 108.411 50.7245C107.583 50.7245 107.138 51.5521 107.01 52.507L106.883 52.7616H108.22L108.029 53.5892H106.692L105.737 58.8092H104.846V58.9365ZM109.366 58.9365L110.066 54.9897L110.448 52.8889H111.339L111.148 54.2258C111.53 53.3982 112.23 52.7616 112.994 52.7616H113.313L113.122 53.7802H112.867C111.976 53.7802 111.148 54.7987 110.894 56.2629L110.384 58.9365H109.366ZM114.458 58.9365L115.604 52.8889H116.687L115.541 58.9365H114.458ZM115.795 51.1702C115.795 50.8519 116.05 50.4699 116.496 50.4699C116.814 50.4699 117.132 50.7245 117.132 51.1065C117.132 51.5521 116.814 51.8067 116.368 51.8067C116.05 51.8067 115.795 51.5521 115.795 51.1702ZM122.543 58.6182C122.161 58.8092 121.525 59.0002 120.761 59.0002C119.169 59.0002 118.469 57.918 118.469 56.7085C118.469 54.6714 119.933 52.7616 122.098 52.7616C122.607 52.7616 123.18 52.9526 123.307 53.0799L123.052 53.8438C122.798 53.7802 122.543 53.5892 122.098 53.5892C120.506 53.5892 119.488 55.117 119.488 56.5175C119.488 57.4724 120.06 58.109 121.015 58.109C121.652 58.109 122.098 57.918 122.416 57.727L122.543 58.6182ZM128.591 58.9365L128.718 57.4087C128.145 58.6182 127.254 59.0638 126.426 59.0638C125.344 59.0638 124.771 58.1726 124.771 57.1541C124.771 54.9897 126.235 52.8889 128.909 52.8889C129.482 52.8889 130.182 52.9526 130.501 53.1436L129.928 56.2629C129.737 57.3451 129.609 58.3636 129.609 59.0002H128.591V58.9365ZM129.291 53.5892L128.591 53.5255C127.063 53.5255 125.726 55.117 125.726 56.7721C125.726 57.4724 125.981 58.109 126.808 58.109C127.7 58.109 128.654 56.9631 128.909 55.3716L129.291 53.5892ZM25.8454 14.821L22.0259 32.5181C20.88 36.3376 18.7793 39.0113 14.3232 39.2023C10.5036 39.2023 8.97583 36.6559 9.93071 31.3086L13.3046 14.821H7.70265L3.81947 33.7276C3.11922 40.9847 7.38436 43.0218 13.8776 42.8308C20.0525 42.6399 24.3176 39.8389 26.7366 34.2369L31.0018 14.821H25.8454ZM73.0166 23.7332L75.2447 32.9001H66.969L73.0166 23.7332ZM74.7354 14.821L55.956 42.1943H61.0487L64.6136 36.9106H76.3269L77.4727 42.1943H83.5203L76.8361 14.821H74.7354ZM93.0055 42.3852H103.764C113.44 41.9396 115.541 37.5472 112.421 30.2264L100.645 7.24557L93.0055 42.3852ZM119.424 0.052124C109.748 0.497736 107.711 4.95385 110.83 12.211L122.543 35.1918L130.182 0.052124H119.424ZM38.3862 38.7567L40.3596 29.5262H42.5877C45.8343 29.5262 48.5716 30.672 48.5716 33.7276C48.5716 37.4198 44.9431 38.9477 40.8689 38.9477L38.3862 38.7567ZM42.6513 18.3222H45.325C48.2533 18.3222 50.0358 19.0224 50.0358 21.3778C50.0358 24.1788 47.3621 25.9613 43.3516 25.9613H41.1235L42.6513 18.3222ZM38.3862 14.821L37.9406 14.8846L32.275 42.3216H43.1606C46.8528 42.3216 48.9536 41.303 50.3541 40.4755C52.5821 39.0113 54.1736 36.6559 54.7465 33.7913C55.4468 29.9081 52.7731 27.871 49.4628 27.5527C52.8368 26.7888 55.7014 24.3061 55.8924 20.7412C56.338 14.821 49.6538 14.821 49.6538 14.821H38.3862Z" fill="white"/>
</svg>
